<svg width="551" height="534" viewBox="0 0 551 534" fill="none" xmlns="http://www.w3.org/2000/svg">
<g clip-path="url(#clip0_17_423)">
<path d="M0 -17.5658H551V433.093C534.595 426.787 518.092 420.739 501.497 414.951C486.938 409.716 472.248 404.508 458.079 398.266C448.945 401.517 378.407 426.248 377.518 427.253C379.189 429.112 393.814 435.169 397.132 436.704L446.552 460.079L460.348 466.68C463.139 467.999 466.1 469.167 468.721 470.798C472.309 469.756 475.826 467.81 479.213 466.231L496.759 458.039L551 433.297V534H143.83C139.332 529.357 134.168 525.156 129.248 520.962C120.488 513.499 111.567 506.181 103.027 498.467C110.082 496.227 117.361 494.46 124.507 492.516L155.225 484.008C166.136 481.103 177.167 478.434 187.956 475.098C193.074 478.068 200.587 484.534 205.594 488.365C217.98 497.663 230.191 507.193 242.222 516.947C236.394 518.617 230.193 520.03 224.532 522.166C223.949 522.387 223.389 522.495 223.131 523.087L223.698 523.464C225.255 523.723 238.329 519.619 240.583 518.925C241.789 518.553 243.569 518.122 244.176 516.963C242.059 514.032 191.387 475.339 188.289 473.665C185.176 474.281 182.06 475.41 178.979 476.215L154.638 482.697L123.156 491.425C116.231 493.324 109.208 495.059 102.346 497.167C101.606 497.394 100.965 497.477 100.463 498.076C101.336 499.683 127.85 521.584 132.108 525.253C135.383 528.123 138.617 531.038 141.808 534H0V-17.5658ZM497.17 246.586C497.581 239.98 494.578 226.011 493.005 219.246C490.905 210.211 488.718 200.818 485.812 192.014C476.362 163.38 457.425 128.766 437.375 106.058C430.519 98.2926 423.603 90.4792 416.012 83.4241C367.935 38.7419 307.292 15.9934 242.351 11.9967C210.812 10.0557 176.707 14.0919 146.646 24.0579C122.171 32.1718 94.7591 47.2303 75.4466 64.3207C50.2778 86.5945 31.6984 112.71 21.7021 144.986C17.7956 157.599 15.2965 170.291 14.5452 183.501C12.9518 209.9 19.2389 236.177 32.6068 258.99C35.072 263.104 37.8703 267.647 41.0588 271.221C41.1817 271.36 41.3074 271.497 41.4358 271.63L41.6721 350.668L41.701 373.556C41.7012 377.452 41.4186 381.613 41.8321 385.472C32.4378 388.218 22.9289 390.535 13.5138 393.205C11.334 393.824 8.95601 394.215 6.83208 394.927C6.13671 395.161 5.88149 395.356 5.53201 395.988L5.78157 396.402C7.98875 396.74 38.2803 387.972 42.8417 386.644C55.5332 383.189 68.2713 379.905 80.9109 376.265L81.2128 376.694C82.8787 379.097 84.1265 381.734 85.8866 384.111C93.7954 394.792 104.29 400.038 117.157 402.5C130.986 405.146 157.641 404.492 171.377 401.136C175.957 404.417 182.404 405.261 187.893 404.369C189.54 404.101 190.9 403.437 191.86 402.037C192.828 400.627 193.059 398.58 193.399 396.914C199.213 397.024 205.272 396.138 211.065 395.628L240.596 392.975C244.956 392.551 249.662 391.573 254.019 391.637C257.513 391.687 262.64 393.912 266.093 394.954C282.847 400.123 299.514 405.573 316.086 411.302C321.779 413.245 344.086 421.587 348.566 421.364C351.503 421.217 366.248 414.926 370.188 413.437C404.738 400.307 439.196 386.934 473.559 373.319C481.048 370.392 488.772 368.022 496.214 364.996C497.47 362.073 498.157 358.781 498.988 355.713C500.279 350.866 501.614 346.03 502.993 341.208L521.556 274.834C522.935 269.999 531.286 242.852 531.001 239.88C529.062 239.018 501.301 245.672 497.17 246.586ZM390.773 463.254C388.801 463.922 372.762 470.711 372.189 471.593C372.743 472.349 373.725 472.862 374.576 473.235C383.421 477.815 392.174 482.714 401.134 487.053C402.033 487.629 402.927 488.097 403.9 488.536C404.862 488.138 405.876 487.784 406.777 487.263C413.08 484.53 419.921 482.041 425.836 478.565C422.282 476.296 418.282 474.526 414.518 472.633C407.448 469.096 400.357 465.603 393.243 462.154C392.38 462.422 391.582 462.856 390.773 463.254ZM245.412 394.765C238.366 397.885 231.057 400.532 223.846 403.254C210.597 408.311 197.249 413.104 183.811 417.631L168.018 422.962C165.152 423.918 162.13 424.725 159.352 425.901C165.316 431.202 171.873 435.961 178.189 440.837C186.423 447.195 194.601 453.624 202.724 460.124C228.261 480.41 253.503 501.189 279.403 521.003C280.09 521.428 280.193 521.595 281.019 521.374C283.149 520.801 286.65 518.578 288.864 517.519C299.051 512.664 309.18 507.687 319.248 502.59L347.985 488.305C353.224 485.725 359.189 483.375 364.003 480.078C360.873 476.675 356.095 474.098 352.271 471.47C347.33 468.037 342.413 464.57 337.52 461.067L276.519 416.824C269.588 411.875 262.623 406.973 255.623 402.121C252.237 399.738 248.551 397.454 245.412 394.765ZM99.1838 401.291C78.6321 405.303 58.2596 410.255 37.8161 414.776L15.0943 419.825C11.7128 420.588 8.0114 421.117 4.74576 422.233C5.49714 424.38 12.2552 429.086 14.2632 430.942C11.8384 431.421 7.66676 431.717 5.75461 433.292C5.64657 433.778 5.55192 433.722 5.76602 434.091C6.43185 435.235 13.4545 440.544 15.1728 442.187C12.1492 442.886 9.11367 443.555 6.10066 444.298C20.3291 457.194 35.0982 469.405 49.6081 481.971C54.8794 486.536 60.3711 490.965 65.4237 495.766C67.1257 495.367 68.8223 494.97 70.5027 494.485C82.5639 490.981 94.8027 488.001 106.963 484.857L140.906 475.8L157.503 471.37C160.818 470.484 164.37 469.839 167.479 468.366C165.12 465.429 161.434 463.53 158.567 461.095C160.736 460.592 166.215 459.896 167.427 458.152C167.185 456.925 160.071 451.897 158.629 450.717C160.298 450.252 164.155 449.589 165.188 448.267C165.122 448.118 165.086 447.951 164.991 447.821C164.416 447.036 161.736 445.883 160.837 445.29C158.952 444.048 157.158 442.638 155.324 441.32L118.721 415.06L106.552 406.212C104.294 404.56 102.065 402.686 99.6406 401.288L99.1838 401.291ZM381.243 443.276C369.688 447.071 357.913 450.596 346.544 454.909C345.185 455.425 343.67 455.587 342.463 456.417L342.26 456.986C342.727 457.381 342.49 457.324 343.095 457.279C345.495 457.099 349.156 455.417 351.583 454.621L370.072 448.423C374.127 447.058 378.196 445.566 382.351 444.534C391.145 448.06 399.763 452.595 408.324 456.677L453.073 477.916C450.163 479.809 446.835 481.186 443.697 482.661L429.848 489.158C417.422 494.985 405.126 501.137 392.6 506.743C385.422 503.435 378.28 500.053 371.173 496.595C368.571 495.331 366.034 493.827 363.386 492.681C362.465 492.281 361.57 491.958 360.563 491.882L360.265 492.102C360.75 492.906 361.557 493.362 362.356 493.815C365.931 495.84 369.848 497.478 373.556 499.261C379.823 502.274 386.063 505.365 392.378 508.273C396.857 506.485 454.461 479.474 454.991 478.587C454.997 478.167 455.119 477.831 454.823 477.495C453.751 476.284 384.544 443.377 382.296 443.205C381.957 443.179 381.577 443.238 381.243 443.276ZM184.613 488.229C175.216 491.189 165.776 494.009 156.297 496.691C150.786 498.185 145.297 499.758 139.832 501.41C137.055 502.233 134.166 502.939 131.481 504.025C134.21 506.963 156.454 526.378 159.362 527.763C160.212 527.714 160.908 527.552 161.72 527.299C173.878 523.313 186.288 519.956 198.584 516.419C203.838 514.909 209.516 513.753 214.575 511.732C212.221 509.219 186.235 488.436 184.952 488.235C184.841 488.218 184.726 488.231 184.613 488.229Z" fill="white"/>
<path d="M168.605 111.091C168.64 106.797 169.172 102.958 172.42 99.7943C174.436 97.832 177.299 96.2909 180.175 96.4008C184.577 96.5684 186.527 99.5853 189.825 101.747C194.134 104.571 199.638 103.364 203.274 100.065C208.223 95.5729 209.444 88.4758 210.84 82.2605C221.549 90.4871 234.806 99.15 248.924 97.2734C259.494 95.8681 269.424 89.6264 275.828 81.1724C279.219 76.6964 282.001 71.2733 283.106 65.7388C275.073 65.3279 269.02 62.7246 263.607 56.6999C259.545 52.1792 256.007 47.2156 251.45 43.151C241.933 34.6629 225.903 29.8725 213.402 29.1024C203.579 28.4974 192.671 30.4693 184.146 35.5747C181.266 37.2998 178.63 39.505 175.977 41.5572C172.639 44.1378 169.336 46.7254 166.189 49.5398C158.885 56.073 154.896 65.4954 154.39 75.2156C153.813 86.2965 158.022 97.7313 163.318 107.286C164.206 108.888 165.416 111.408 166.764 112.651C166.827 112.709 166.905 112.747 166.975 112.795C167.72 114.055 167.996 115.441 168.485 116.807C169.688 120.163 171.486 122.914 173.815 125.588C170.327 139.057 167.156 149.577 154.339 157.112C146.795 161.548 138.116 163.864 129.85 166.54C109.93 172.987 93.0899 182.928 81.4893 200.895C78.652 200.195 44.076 200.305 41.9331 201.037C40.7653 203.139 41.4372 264.769 41.4364 271.631C41.3079 271.497 41.1822 271.361 41.0593 271.222C37.8708 267.647 35.0725 263.104 32.6073 258.99C19.2394 236.178 12.9523 209.901 14.5457 183.501C15.2971 170.292 17.7961 157.6 21.7026 144.987C31.6989 112.71 50.2783 86.5949 75.4472 64.3211C94.7596 47.2307 122.171 32.1722 146.646 24.0583C176.708 14.0923 210.813 10.0561 242.351 11.9971C307.293 15.9938 367.936 38.7423 416.013 83.4245C423.604 90.4796 430.519 98.2931 437.375 106.058C457.426 128.766 476.362 163.38 485.812 192.015C488.718 200.819 490.906 210.211 493.006 219.246C494.578 226.011 497.582 239.98 497.171 246.586L436.519 259.772C422.902 262.715 408.966 265.196 395.54 268.899C394.43 269.205 393.17 269.521 392.282 270.277C390.35 273.771 389.569 278.77 388.523 282.631C386.844 289.066 385.051 295.471 383.144 301.842C366.603 305.171 350.049 309.369 333.704 313.565C332.453 312.221 329.079 309.171 328.998 307.393C329.216 305.582 329.084 303.617 328.558 301.873C327.046 296.864 322.713 293.69 318.176 291.602C316.979 291.052 315.514 290.734 314.4 290.077C314.327 290.033 314.258 289.981 314.187 289.934C313.822 288.8 313.438 287.672 313.036 286.55C307.628 271.223 301.727 255.991 295.902 240.818C289.192 223.343 279.784 196.811 268.568 182.134C261.328 172.661 252.747 165.866 242.03 160.734C244.43 156.804 246.483 152.673 248.166 148.386C249.756 144.323 264.927 98.125 264.23 95.8897C264.112 95.5121 263.9 95.5056 263.581 95.3354C262.256 96.4369 261.373 101.741 260.86 103.525C256.593 118.391 252.37 133.543 246.786 147.976C245.241 151.971 243.385 156.063 240.933 159.59C238.27 163.42 234.753 166.718 229.996 167.55C221.606 169.016 212.853 164.721 206.888 159.018C205.391 157.586 204.007 155.25 202.336 154.132C202.227 154.058 202.113 153.989 202.002 153.917L202.077 153.911L201.367 153.863L201.225 154.171C202.612 158.238 210.07 163.388 213.673 165.744C211.729 168.307 210.509 170.944 209.436 173.962C208.747 175.899 207.544 178.127 208.498 180.129L208.918 180.268C209.849 179.233 210.311 175.477 210.811 173.987C211.734 171.234 213.142 168.589 214.734 166.167L218.866 168.059C218.888 168.158 218.911 168.256 218.93 168.355C220.447 175.868 218.832 188.995 214.433 195.546C211.236 200.304 206.659 202.968 201.062 203.985C187.26 206.492 169.956 199.65 158.729 191.908C151.565 186.969 138.35 174.58 136.75 165.778C142.495 164.323 148.867 161.868 153.986 158.943C167.759 151.073 171.312 140.724 175.186 126.302C175.696 126.554 176.224 126.832 176.766 127.007C177.509 127.247 178.225 127.469 178.932 127.133C178.62 125.715 175.664 124.764 174.472 123.751C170.778 120.612 168.975 115.819 168.605 111.091ZM178.662 104.487C176.826 105.373 175.619 106.275 174.939 108.28C174.214 110.418 174.634 112.793 175.666 114.755C176.431 116.208 177.49 117.523 179.118 118.01C179.905 118.246 181.306 118.403 182.069 118.01C182.372 117.854 182.393 117.805 182.605 117.592L182.5 117.092C181.728 116.643 180.911 116.777 180.052 116.81C178.455 116.304 177.39 115.325 176.653 113.811C175.919 112.305 175.71 109.357 176.277 107.795C176.49 107.208 176.862 106.709 177.42 106.408C178.959 105.58 182.401 106.844 183.125 105.558C182.757 104.974 182.018 104.6 181.348 104.453C180.506 104.268 179.514 104.422 178.662 104.487ZM245.89 116.181C245.352 116.446 245.001 116.984 244.977 117.585C244.953 118.185 245.259 118.75 245.775 119.058C246.29 119.365 246.932 119.365 247.448 119.058C248.203 118.609 248.469 117.643 248.051 116.87C247.632 116.097 246.679 115.793 245.89 116.181ZM219.251 116.925C218.435 117.359 218.113 118.365 218.525 119.193C218.937 120.021 219.933 120.37 220.771 119.98C221.333 119.718 221.709 119.171 221.752 118.552C221.796 117.933 221.5 117.339 220.981 117.001C220.461 116.663 219.798 116.634 219.251 116.925ZM234.259 117.446C233.701 120.476 237.702 127.408 238.813 130.7C237.459 131.18 236.216 131.589 235.063 132.482L234.718 133.249C235.156 133.524 235.282 133.463 235.783 133.475C237.161 132.904 239.533 132.293 240.237 130.923C239.7 127.261 236.726 121.262 235.074 117.827C234.808 117.696 234.54 117.541 234.259 117.446ZM217.236 142.756C217.107 144.126 217.589 145.267 218.441 146.339C219.87 148.135 222.503 148.978 224.713 149.148C227.31 149.346 229.65 148.685 231.687 147.071L231.171 146.404C227.594 146.052 224.656 151.095 219.7 145.373C218.846 144.387 218.498 143.207 217.236 142.756Z" fill="#FAFAFA"/>
<path d="M210.841 82.2598C209.446 88.4752 208.224 95.5723 203.275 100.064C199.64 103.363 194.136 104.57 189.827 101.746C186.529 99.5846 184.579 96.5677 180.176 96.4001C177.301 96.2903 174.437 97.8313 172.422 99.7936C169.174 102.957 168.642 106.796 168.607 111.09C168.976 115.819 170.78 120.611 174.473 123.75C175.666 124.764 178.622 125.714 178.933 127.132C178.226 127.469 177.511 127.246 176.768 127.006C176.226 126.831 175.697 126.554 175.188 126.301C171.314 140.723 167.761 151.072 153.988 158.942C148.868 161.867 142.496 164.322 136.752 165.777C112.517 173.523 97.7493 180.492 82.2529 201.699C76.8279 210.935 72.8644 220.093 70.1401 230.452C60.7967 265.98 64.6069 319.312 73.7947 354.671C75.041 359.442 76.5029 364.154 78.1769 368.792C78.9663 371.008 80.5004 374.093 80.9131 376.265C68.2734 379.904 55.5353 383.189 42.8439 386.643C38.2825 387.972 7.99092 396.74 5.78374 396.401L5.53418 395.988C5.88367 395.355 6.13888 395.161 6.83425 394.927C8.95818 394.214 11.3362 393.823 13.516 393.205C22.931 390.534 32.4399 388.218 41.8343 385.471C41.4207 381.613 41.7034 377.451 41.7032 373.556L41.6742 350.668L41.438 271.63C41.4389 264.769 40.767 203.138 41.9347 201.036C44.0777 200.304 78.6537 200.194 81.491 200.894C93.0916 182.927 109.932 172.986 129.852 166.539C138.118 163.864 146.796 161.547 154.341 157.112C167.158 149.576 170.329 139.057 173.816 125.587C171.487 122.913 169.69 120.163 168.487 116.806C167.997 115.44 167.722 114.055 166.977 112.795C166.906 112.747 166.828 112.708 166.765 112.65C165.418 111.408 164.207 108.887 163.319 107.285C158.024 97.7306 153.815 86.2958 154.391 75.215C154.898 65.4947 158.887 56.0723 166.191 49.5391C169.337 46.7248 172.641 44.1371 175.978 41.5565C178.632 39.5043 181.268 37.2991 184.148 35.574C192.672 30.4686 203.581 28.4967 213.403 29.1017C225.905 29.8718 241.934 34.6622 251.452 43.1503C256.009 47.2149 259.547 52.1785 263.608 56.6993C269.021 62.7239 275.074 65.3272 283.108 65.7381C282.003 71.2727 279.22 76.6957 275.83 81.1718C269.426 89.6257 259.495 95.8674 248.926 97.2727C234.807 99.1494 221.551 90.4864 210.841 82.2598Z" fill="#050C0F"/>
<path d="M218.865 168.058L214.732 166.167C213.14 168.588 211.732 171.233 210.809 173.986C210.309 175.476 209.848 179.232 208.916 180.267L208.496 180.129C207.542 178.126 208.746 175.898 209.435 173.961C210.507 170.943 211.727 168.307 213.671 165.743C210.069 163.387 202.611 158.237 201.224 154.17L201.365 153.862L202.075 153.91L202 153.916C202.111 153.988 202.225 154.057 202.335 154.131C204.006 155.249 205.39 157.585 206.886 159.017C212.852 164.72 221.605 169.015 229.995 167.549C234.752 166.718 238.269 163.419 240.932 159.589C243.384 156.062 245.239 151.97 246.784 147.975C252.368 133.542 256.592 118.39 260.859 103.524C261.371 101.74 262.254 96.436 263.579 95.3345C263.898 95.5047 264.11 95.5111 264.228 95.8887C264.925 98.1241 249.755 144.322 248.164 148.386C246.481 152.672 244.428 156.803 242.028 160.733C252.745 165.865 261.326 172.66 268.566 182.133C279.782 196.81 289.19 223.342 295.9 240.817C301.726 255.99 307.626 271.223 313.034 286.55C313.436 287.671 313.82 288.799 314.186 289.933L313.442 290.264C312.213 289.432 309.738 281.626 308.972 279.61L292.417 235.886C285.75 218.654 277.091 194.914 265.61 180.796C258.773 172.387 250.756 166.583 241.065 161.913C239.355 164.041 237.52 165.875 235.117 167.218C230.05 170.051 224.252 169.625 218.865 168.058Z" fill="#050C0F"/>
<path d="M180.054 116.81C180.913 116.776 181.73 116.642 182.502 117.092L182.607 117.591C182.395 117.804 182.374 117.854 182.071 118.009C181.308 118.403 179.907 118.245 179.12 118.01C177.492 117.522 176.433 116.208 175.668 114.755C174.635 112.793 174.216 110.417 174.941 108.28C175.621 106.275 176.828 105.373 178.664 104.486C179.516 104.421 180.508 104.268 181.35 104.452C182.02 104.599 182.758 104.973 183.127 105.558C182.403 106.843 178.961 105.579 177.422 106.408C176.864 106.709 176.492 107.207 176.279 107.795C175.712 109.357 175.92 112.304 176.654 113.81C177.392 115.324 178.457 116.303 180.054 116.81Z" fill="#050C0F"/>
<path d="M247.446 119.058C246.931 119.365 246.288 119.365 245.773 119.057C245.257 118.75 244.951 118.184 244.975 117.584C245 116.984 245.35 116.445 245.889 116.18C246.677 115.792 247.63 116.097 248.049 116.87C248.467 117.643 248.201 118.608 247.446 119.058Z" fill="#050C0F"/>
<path d="M220.771 119.979C219.934 120.369 218.938 120.02 218.525 119.193C218.113 118.364 218.436 117.358 219.251 116.924C219.799 116.633 220.461 116.662 220.981 117C221.501 117.338 221.796 117.932 221.753 118.551C221.709 119.17 221.334 119.717 220.771 119.979Z" fill="#050C0F"/>
<path d="M238.815 130.7C237.704 127.408 233.703 120.476 234.261 117.446C234.542 117.541 234.81 117.697 235.075 117.827C236.727 121.262 239.701 127.261 240.238 130.923C239.534 132.293 237.163 132.904 235.785 133.475C235.284 133.464 235.158 133.524 234.72 133.249L235.065 132.482C236.218 131.589 237.461 131.18 238.815 130.7Z" fill="#050C0F"/>
<path d="M231.685 147.07C229.648 148.685 227.308 149.346 224.711 149.147C222.501 148.978 219.868 148.135 218.439 146.339C217.587 145.267 217.105 144.126 217.233 142.755C218.496 143.207 218.844 144.387 219.698 145.373C224.654 151.095 227.592 146.052 231.169 146.404L231.685 147.07Z" fill="#050C0F"/>
<path d="M82.2484 201.698C97.7447 180.492 112.512 173.523 136.747 165.777C138.347 174.579 151.562 186.968 158.727 191.907C169.953 199.649 187.257 206.491 201.059 203.984C206.657 202.967 211.233 200.303 214.43 195.545C218.829 188.995 220.444 175.867 218.928 168.354C218.908 168.255 218.885 168.157 218.864 168.058C224.251 169.625 230.049 170.051 235.116 167.218C237.518 165.875 239.353 164.041 241.063 161.913C250.755 166.583 258.772 172.387 265.609 180.796C277.089 194.914 285.749 218.654 292.416 235.886L308.97 279.61C309.737 281.626 312.212 289.432 313.441 290.264L314.184 289.933C314.255 289.98 314.324 290.032 314.398 290.076C315.511 290.733 316.977 291.051 318.173 291.601C322.71 293.689 327.044 296.863 328.555 301.872C329.081 303.616 329.213 305.581 328.995 307.392C327.918 306.337 327.114 305.919 325.602 305.905C324.793 305.192 323.455 305.274 322.435 305.333C313.71 305.848 305.089 311.828 299.602 318.302C296.541 321.913 290.567 331.217 290.432 336.084C290.047 337.389 290.294 338.064 290.921 339.228L291.047 339.458C290.766 339.973 290.479 340.486 290.095 340.934C289.373 341.776 288.221 342.712 287.043 342.692C282.123 342.61 279.124 333.36 276.34 330.453C276.258 330.368 276.174 330.286 276.091 330.202C276.092 330.179 276.097 330.156 276.093 330.133C275.97 329.308 275.931 329.351 275.257 328.879L275.424 328.404C272.372 322.659 269.313 316.934 266.455 311.089C264.55 307.192 262.845 303.176 260.882 299.316C260.609 298.782 260.572 298.433 260.013 298.199L266.595 255.747C267.806 248.138 269.446 240.37 270.163 232.709C270.231 231.978 270.322 231.296 269.985 230.622C269.438 230.758 269.584 230.614 269.302 231.068C268.224 232.799 265.624 252.502 265.096 255.882L257.633 302.669C256.046 313.058 254.871 323.672 252.773 333.962C239.04 337.684 225.028 340.364 211.331 344.205C208.857 344.899 206.176 345.37 203.765 346.191C203.123 346.409 202.639 346.62 202.197 347.154C202.31 347.779 202.187 347.482 202.598 348.031L202.324 347.579L202.885 348.005L203.133 347.931C203.469 348.616 203.445 348.792 204.13 349.099C203.948 349.579 203.77 350.008 203.666 350.51C203.049 354.931 201.995 359.23 201.024 363.582L195.886 386.156C195.198 389.25 194.269 392.456 193.81 395.586L193.397 396.914C193.056 398.58 192.826 400.627 191.858 402.037C190.898 403.436 189.537 404.1 187.891 404.368C182.402 405.26 175.955 404.417 171.375 401.135C157.639 404.492 130.983 405.146 117.155 402.499C104.288 400.037 93.793 394.791 85.8842 384.111C84.1242 381.733 82.8763 379.096 81.2104 376.693L80.9085 376.265C80.4958 374.093 78.9618 371.008 78.1724 368.791C76.4984 364.153 75.0364 359.442 73.7902 354.671C64.6024 319.312 60.7922 265.98 70.1355 230.451C72.8599 220.093 76.8234 210.935 82.2484 201.698ZM127.111 221.639C126.071 227.461 126.715 234.635 126.747 240.592C126.863 262.233 128.192 318.036 140.03 335.113C143.817 340.577 149.148 342.973 155.544 344.088C163.315 345.444 171.76 345.681 179.604 344.878L179.567 343.944C178.502 343.232 174.732 343.785 173.313 343.823C168.831 343.916 164.348 343.726 159.889 343.257C147.853 342.017 141.689 338.291 137.522 326.664C135.936 322.241 134.775 317.63 133.856 313.024C129.595 291.655 128.647 267.703 128.334 245.872C128.258 240.588 128.214 235.304 128.2 230.019C128.202 228.012 128.458 225.942 128.36 223.953C128.324 223.223 128.313 222.626 127.912 221.993L127.111 221.639ZM309.713 289.026C299.29 290.183 291.028 294.827 284.508 303.018C282.605 305.409 279.239 309.603 278.943 312.732C279.323 313.266 279.4 313.277 280.048 313.347C280.11 313.353 280.171 313.333 280.233 313.326C284.251 303.834 291.191 296.506 300.782 292.556C303.184 291.567 309.678 291.021 311.066 289.933L311.108 289.448C310.533 288.96 310.48 289.027 309.713 289.026ZM174.71 352.364C171.485 358.133 169.664 382.053 169.238 389.784C169.118 391.96 168.672 394.938 169.092 397.037C169.213 397.643 169.459 397.745 169.924 398.086C170.961 396.623 170.652 393.228 170.74 391.376C171.072 384.444 171.459 377.512 172.377 370.629C172.802 367.439 175.558 354.857 175.378 353.029C175.151 352.727 175.037 352.566 174.71 352.364Z" fill="#6556FF"/>
<path d="M179.605 344.878C171.761 345.681 163.317 345.444 155.545 344.089C149.149 342.973 143.819 340.577 140.031 335.113C128.193 318.036 126.864 262.233 126.748 240.593C126.716 234.635 126.072 227.462 127.113 221.639L127.913 221.993C128.315 222.626 128.325 223.223 128.361 223.953C128.459 225.942 128.203 228.013 128.202 230.02C128.215 235.304 128.259 240.588 128.335 245.872C128.648 267.703 129.596 291.655 133.857 313.024C134.776 317.63 135.937 322.241 137.523 326.664C141.69 338.291 147.854 342.017 159.891 343.257C164.349 343.727 168.833 343.916 173.315 343.824C174.733 343.785 178.504 343.232 179.568 343.944L179.605 344.878Z" fill="#050C0F"/>
<path d="M252.777 333.962C254.875 323.672 256.05 313.058 257.637 302.669L265.1 255.882C265.629 252.502 268.229 232.799 269.306 231.068C269.588 230.614 269.442 230.758 269.99 230.622C270.327 231.297 270.236 231.979 270.167 232.709C269.45 240.37 267.81 248.138 266.599 255.747L260.017 298.199C257.94 309.999 256.772 322.042 254.358 333.761L275.261 328.879C275.936 329.351 275.974 329.308 276.098 330.134C276.101 330.156 276.096 330.179 276.095 330.202C258.547 334.234 241.025 338.382 223.532 342.648C218.679 343.826 207.019 346.059 203.137 347.931L202.889 348.005L202.329 347.579L202.603 348.032C202.191 347.482 202.314 347.779 202.202 347.154C202.643 346.62 203.128 346.41 203.769 346.191C206.18 345.37 208.862 344.899 211.336 344.205C225.033 340.365 239.044 337.684 252.777 333.962Z" fill="#050C0F"/>
<path d="M497.171 246.586C501.302 245.671 529.063 239.018 531.002 239.879C531.287 242.852 522.935 269.999 521.557 274.834L502.994 341.208C501.615 346.03 500.28 350.865 498.989 355.713C498.158 358.781 497.471 362.072 496.215 364.996C488.773 368.022 481.049 370.392 473.56 373.319C439.197 386.934 404.739 400.307 370.189 413.436C366.249 414.926 351.504 421.217 348.567 421.364C344.087 421.587 321.78 413.245 316.087 411.302C299.515 405.573 282.848 400.123 266.094 394.954C262.641 393.912 257.514 391.687 254.02 391.637C249.663 391.573 244.957 392.551 240.597 392.975L211.066 395.627C205.273 396.137 199.214 397.023 193.4 396.914L193.814 395.586C214.949 394.438 236.004 391.399 257.121 390.01C259.902 389.827 262.77 390.196 265.55 390.354C270.799 390.651 276.057 390.64 281.256 389.76C289.648 388.34 297.823 385.144 305.635 381.852L304.559 381.564C303.325 381.247 302.499 380.956 301.463 380.194L301.558 380.21L301.417 379.57L301.027 379.669L301.375 380.069C301.58 379.917 301.753 379.703 301.992 379.613C304.325 378.737 330.187 389.666 337.208 388.441C338.053 388.294 338.627 388.062 339.155 387.35C339.267 386.838 339.285 386.563 339.124 386.048C338.086 382.728 326.049 374.362 323.004 372.571C320.923 371.347 318.718 370.349 316.498 369.409C313.518 368.149 310.212 367.732 307.324 366.418L307.38 365.954C307.797 365.736 307.876 365.65 308.376 365.642C310.246 365.613 312.416 366.513 314.183 367.106C325.423 370.88 331.935 376.696 340.276 384.512C341.651 385.801 343.293 387.47 345.325 387.317C346.209 387.251 346.875 387.009 347.444 386.31C347.649 385.605 347.642 385.159 347.421 384.473C345.71 379.164 337.02 370.558 332.485 366.901C330.794 365.537 328.786 364.341 326.897 363.276C324.419 361.879 320.82 360.992 318.655 359.536C318.201 359.23 318.162 359.041 318.01 358.552L318.571 358.333C320.804 358.618 323.185 359.652 325.212 360.617C335.766 365.639 341.99 374.449 349.252 383.11C350.478 383.417 351.782 383.811 353.046 383.88C353.971 383.93 354.438 383.709 355.097 383.09C355.227 382.192 354.895 381.743 354.384 381.016C351.83 377.383 348.237 374.1 345.26 370.784C330.081 353.88 315.118 343.424 291.257 348.071C282.015 349.871 273.732 353.996 264.183 354.835C256.509 355.509 248.538 354.593 240.866 354.064C228.508 353.211 215.916 352.368 203.67 350.51C203.774 350.008 203.951 349.579 204.133 349.1C216.414 350.749 228.898 351.818 241.256 352.689C249.947 353.302 259.121 354.362 267.779 353.04C277.184 351.604 285.739 347.365 295.223 346.053C294.159 343.68 292.539 341.577 291.051 339.458L290.924 339.228C290.298 338.065 290.05 337.39 290.435 336.084C292.903 338.879 294.877 342.582 296.705 345.825C320.717 345.222 323.964 350.269 342.033 364.276C351.316 362.122 360.324 356.623 369.208 353.178C370.842 347.44 372.384 341.676 373.834 335.888C371.534 335.692 369.238 335.448 366.948 335.155C348.676 332.641 336.223 320 325.605 305.906C327.117 305.92 327.921 306.338 328.998 307.392C329.079 309.17 332.453 312.221 333.705 313.564C350.05 309.369 366.604 305.171 383.144 301.841C385.051 295.47 386.844 289.066 388.524 282.631C389.57 278.769 390.351 273.77 392.283 270.276C393.171 269.521 394.43 269.205 395.54 268.898C408.966 265.195 422.902 262.714 436.519 259.771L497.171 246.586ZM357.463 360.135C356.583 360.552 355.672 360.941 354.814 361.398C352.525 361.992 350.259 362.896 348.112 363.88C346.852 364.385 345.568 364.858 344.346 365.451L343.59 365.924C343.618 367.757 347.206 370.659 348.484 371.939C350.793 374.55 356.592 379.782 356.602 383.131C356.605 383.873 356.373 384.196 355.917 384.745C353.509 385.821 350.462 383.843 348.993 384.515L349.011 384.85C349.061 385.951 349.128 386.734 348.36 387.613C347.635 388.442 345.736 389.109 344.648 388.969C343.276 388.792 342.286 387.476 340.862 387.372C340.807 387.463 340.754 387.555 340.698 387.645C340.01 388.743 339.525 389.554 338.168 389.82C331.219 391.181 322.488 387.097 315.91 385.133L307.668 382.757C296.125 387.289 285.383 391.621 272.792 392.114C279.954 393.889 286.994 396.564 293.984 398.919L323.727 408.965C331.367 411.595 338.993 414.418 346.738 416.72L351.846 415.297C352.56 412.65 353.242 409.989 353.99 407.351C355.518 403.21 356.467 398.761 357.648 394.501C359.468 387.94 361.389 381.425 362.995 374.807L364.848 368.87L365.191 368.106C365.485 366.677 365.839 365.332 366.307 363.949L366.599 362.769C367.247 360.198 368.071 357.651 368.812 355.103C365.016 356.737 361.168 358.304 357.463 360.135ZM528.571 241.331C517.023 243.363 505.585 246.129 494.122 248.587L417.425 265.293C409.479 266.997 401.554 269.163 393.57 270.628C391.99 273.759 391.263 277.722 390.357 281.106L385.804 298.005C378.509 324.334 371.598 350.799 364.006 377.04C362.569 382.009 352.473 416.644 352.846 418.168C352.864 418.242 352.902 418.31 352.931 418.381L353.59 418.298L495.155 363.81C496.954 359.108 498.046 353.956 499.385 349.099L506.869 322.16C514.107 296.258 521.774 270.434 528.78 244.475C529.033 243.538 529.485 242.321 529.239 241.368L528.571 241.331ZM382.25 303.551C373.76 305.308 365.305 307.225 356.888 309.303C349.626 311.033 342.318 312.692 335.125 314.689C338.19 318.454 341.546 321.635 345.342 324.648C354.29 331.331 363.12 333.651 374.093 334.423C374.892 331.877 382.901 304.7 382.335 303.602L382.25 303.551Z" fill="#050C0F"/>
<path d="M393.568 270.628C401.552 269.164 409.477 266.997 417.423 265.294L494.12 248.588C505.583 246.129 517.021 243.364 528.568 241.332L529.236 241.369C529.483 242.321 529.031 243.539 528.778 244.476C521.771 270.435 514.104 296.258 506.866 322.16L499.382 349.099C498.043 353.956 496.952 359.108 495.152 363.811L353.588 418.298L352.929 418.382C352.9 418.311 352.862 418.243 352.844 418.168C352.47 416.645 362.566 382.01 364.004 377.041C371.596 350.8 378.507 324.335 385.801 298.005L390.354 281.107C391.26 277.722 391.987 273.759 393.568 270.628ZM453.7 313.19C449.049 314.992 445.911 318.834 443.908 323.315C442.675 326.069 441.31 330.529 442.483 333.454C442.89 334.466 443.932 335.558 444.974 335.921C445.527 336.114 446.191 336.092 446.772 336.1C450.78 334.825 453.862 330.97 455.749 327.34C457.318 324.32 459.16 319.127 457.978 315.769C457.623 314.767 456.88 313.949 455.917 313.501C455.223 313.186 454.447 313.194 453.7 313.19Z" fill="white"/>
<path d="M280.236 313.327C280.174 313.334 280.112 313.354 280.05 313.347C279.403 313.278 279.326 313.266 278.946 312.733C279.242 309.603 282.608 305.409 284.511 303.019C291.031 294.828 299.292 290.183 309.716 289.026C310.482 289.027 310.536 288.96 311.111 289.448L311.068 289.933C309.681 291.021 303.187 291.567 300.785 292.557C291.194 296.506 284.253 303.834 280.236 313.327Z" fill="#050C0F"/>
<path d="M260.014 298.2C260.574 298.434 260.611 298.783 260.883 299.317C262.847 303.177 264.552 307.193 266.456 311.089C269.315 316.935 272.374 322.659 275.426 328.405L275.259 328.88L254.356 333.761C256.769 322.042 257.937 309.999 260.014 298.2Z" fill="#E6F1F8"/>
<path d="M335.126 314.69C342.319 312.692 349.627 311.034 356.888 309.304C365.306 307.226 373.761 305.309 382.25 303.552L382.335 303.603C382.902 304.7 374.893 331.878 374.094 334.424C363.121 333.651 354.291 331.331 345.343 324.649C341.546 321.635 338.191 318.455 335.126 314.69Z" fill="white"/>
<path d="M290.434 336.084C290.57 331.217 296.543 321.913 299.605 318.302C305.091 311.828 313.713 305.849 322.437 305.334C323.457 305.274 324.795 305.192 325.604 305.906C336.222 320 348.675 332.641 366.947 335.155C369.237 335.448 371.533 335.692 373.833 335.888C372.383 341.676 370.841 347.439 369.207 353.178C360.323 356.623 351.315 362.122 342.032 364.276C323.963 350.269 320.716 345.221 296.704 345.825C294.876 342.582 292.902 338.879 290.434 336.084Z" fill="white"/>
<path d="M446.771 336.1C446.19 336.092 445.527 336.114 444.973 335.921C443.931 335.558 442.889 334.465 442.483 333.454C441.309 330.529 442.675 326.069 443.907 323.314C445.911 318.834 449.048 314.991 453.699 313.19C454.446 313.193 455.222 313.186 455.916 313.5C456.88 313.949 457.623 314.767 457.977 315.769C459.159 319.127 457.318 324.32 455.748 327.34C453.861 330.97 450.779 334.825 446.771 336.1Z" fill="#009A58"/>
<path d="M203.134 347.931C207.016 346.059 218.676 343.827 223.529 342.649C241.022 338.383 258.544 334.234 276.092 330.203C276.175 330.287 276.26 330.368 276.341 330.454C279.125 333.361 282.124 342.611 287.045 342.693C288.222 342.712 289.374 341.777 290.097 340.934C290.48 340.487 290.768 339.974 291.048 339.458C292.537 341.577 294.156 343.68 295.221 346.053C285.736 347.365 277.182 351.604 267.777 353.04C259.118 354.362 249.945 353.302 241.253 352.69C228.896 351.818 216.412 350.749 204.131 349.1C203.446 348.793 203.471 348.616 203.134 347.931Z" fill="white"/>
<path d="M193.812 395.587C194.271 392.457 195.199 389.251 195.887 386.157L201.026 363.583C201.996 359.231 203.05 354.932 203.668 350.511C215.914 352.369 228.506 353.212 240.864 354.065C248.535 354.594 256.507 355.51 264.181 354.835C273.73 353.997 282.013 349.871 291.255 348.072C315.115 343.425 330.079 353.881 345.258 370.784C348.235 374.1 351.827 377.384 354.382 381.016C354.893 381.744 355.225 382.192 355.095 383.091C354.436 383.71 353.968 383.931 353.044 383.881C351.78 383.812 350.476 383.418 349.249 383.111C341.987 374.45 335.763 365.64 325.21 360.618C323.182 359.653 320.801 358.619 318.569 358.334L318.008 358.553C318.16 359.042 318.199 359.231 318.653 359.537C320.818 360.993 324.417 361.88 326.895 363.277C328.783 364.342 330.792 365.538 332.483 366.901C337.018 370.559 345.708 379.165 347.418 384.473C347.64 385.16 347.647 385.606 347.441 386.311C346.873 387.01 346.207 387.252 345.323 387.318C343.291 387.471 341.649 385.802 340.274 384.513C331.933 376.697 325.421 370.881 314.181 367.107C312.414 366.514 310.244 365.614 308.374 365.643C307.874 365.651 307.795 365.736 307.378 365.954L307.322 366.418C310.21 367.733 313.516 368.15 316.496 369.41C318.716 370.349 320.921 371.348 323.002 372.572C326.047 374.363 338.084 382.729 339.122 386.049C339.283 386.563 339.265 386.839 339.153 387.35C338.624 388.062 338.051 388.294 337.206 388.442C330.185 389.667 304.323 378.737 301.99 379.613C301.75 379.703 301.578 379.918 301.373 380.07L301.025 379.669L301.415 379.571L301.556 380.211L301.461 380.194C302.497 380.957 303.323 381.247 304.557 381.565L305.633 381.852C297.821 385.145 289.646 388.34 281.254 389.761C276.055 390.641 270.797 390.652 265.548 390.354C262.768 390.197 259.9 389.827 257.119 390.011C236.002 391.4 214.946 394.439 193.812 395.587Z" fill="white"/>
<path d="M169.924 398.086C169.459 397.745 169.213 397.644 169.092 397.038C168.672 394.938 169.118 391.961 169.238 389.784C169.664 382.053 171.485 358.134 174.71 352.365C175.037 352.566 175.151 352.727 175.378 353.029C175.558 354.857 172.802 367.439 172.377 370.629C171.459 377.512 171.072 384.445 170.74 391.376C170.652 393.228 170.961 396.623 169.924 398.086Z" fill="#050C0F"/>
<path d="M357.463 360.135C361.168 358.304 365.017 356.737 368.812 355.103C368.071 357.651 367.247 360.198 366.599 362.769C363.755 362.463 360.076 361.31 357.463 360.135Z" fill="#E6F1F8"/>
<path d="M354.812 361.398C355.671 360.941 356.582 360.552 357.461 360.135C360.075 361.31 363.754 362.463 366.598 362.769L366.305 363.949C362.531 362.86 358.693 362.009 354.812 361.398Z" fill="#009A58"/>
<path d="M348.113 363.88C350.26 362.896 352.526 361.992 354.815 361.399C358.695 362.009 362.533 362.861 366.308 363.95C365.839 365.333 365.485 366.678 365.192 368.106C360.202 366.371 352.262 365.771 348.113 363.88Z" fill="#E6F1F8"/>
<path d="M344.343 365.452C345.565 364.859 346.849 364.386 348.109 363.881C352.258 365.771 360.198 366.371 365.188 368.106L364.845 368.871C361.643 368.9 357.995 367.594 354.845 366.915C351.348 366.16 347.911 365.683 344.343 365.452Z" fill="#009A58"/>
<path d="M348.483 371.94C347.205 370.66 343.616 367.758 343.589 365.925L344.344 365.452C347.912 365.684 351.349 366.16 354.846 366.915C357.997 367.594 361.645 368.9 364.847 368.871L362.993 374.808C358.147 374.028 353.268 373.032 348.483 371.94Z" fill="#E6F1F8"/>
<path d="M348.481 371.94C353.266 373.031 358.145 374.027 362.992 374.807C361.385 381.426 359.464 387.941 357.645 394.502C356.464 398.762 355.514 403.211 353.987 407.352C351.689 407.367 345.736 410.749 343.313 411.741C339.906 411 336.525 409.47 333.205 408.355C326.228 406.012 319.209 403.805 312.258 401.38C306.339 399.315 300.373 396.712 294.213 395.503C296.279 393.987 298.748 393.045 301.073 392C305.967 389.8 311.267 387.808 315.907 385.133C322.485 387.098 331.215 391.182 338.164 389.82C339.521 389.554 340.007 388.743 340.694 387.645C340.751 387.555 340.804 387.463 340.859 387.372C342.282 387.477 343.273 388.792 344.645 388.97C345.733 389.11 347.632 388.443 348.357 387.614C349.125 386.735 349.058 385.951 349.008 384.85L348.99 384.515C350.458 383.843 353.506 385.822 355.914 384.746C356.37 384.197 356.601 383.874 356.599 383.131C356.589 379.783 350.79 374.551 348.481 371.94Z" fill="#FCA0F3"/>
<path d="M307.666 382.757L315.908 385.132C311.269 387.808 305.968 389.799 301.075 391.999C298.75 393.044 296.28 393.986 294.214 395.503C300.375 396.711 306.341 399.314 312.26 401.379C319.21 403.805 326.229 406.012 333.207 408.354C336.527 409.469 339.908 410.999 343.315 411.741C345.738 410.748 351.691 407.366 353.988 407.351C353.24 409.988 352.558 412.65 351.845 415.297L346.736 416.72C338.991 414.418 331.365 411.595 323.726 408.964L293.983 398.919C286.992 396.563 279.952 393.888 272.79 392.114C285.382 391.621 296.123 387.289 307.666 382.757Z" fill="#E6F1F8"/>
<path d="M159.351 425.901C162.129 424.725 165.151 423.918 168.017 422.963L183.81 417.631C197.248 413.104 210.596 408.311 223.846 403.254C231.056 400.533 238.365 397.885 245.411 394.765C248.55 397.454 252.236 399.738 255.622 402.121C262.622 406.973 269.587 411.875 276.518 416.824L337.519 461.068C342.412 464.57 347.329 468.037 352.271 471.47C356.094 474.098 360.872 476.676 364.002 480.078C359.188 483.375 353.223 485.725 347.984 488.305L319.247 502.59C309.179 507.687 299.05 512.664 288.864 517.52C286.649 518.578 283.148 520.801 281.018 521.375C280.192 521.595 280.089 521.428 279.402 521.003C253.502 501.189 228.261 480.41 202.723 460.124C194.6 453.625 186.422 447.195 178.188 440.837C171.872 435.962 165.315 431.203 159.351 425.901ZM244.957 396.617C230.046 402.536 215.025 408.493 199.86 413.719C191.331 416.567 182.822 419.473 174.332 422.437C170.325 423.805 166.18 424.986 162.248 426.547L232.518 481.943C248.318 494.595 263.83 507.804 280.155 519.768C280.358 519.791 280.562 519.866 280.764 519.836C282.028 519.653 288.896 515.999 290.559 515.197C308.868 506.264 327.11 497.195 345.284 487.991C350.64 485.288 356.365 482.944 361.455 479.781C358.674 477.45 355.563 475.476 352.589 473.397C346.419 469.084 340.168 464.846 334.069 460.438L269.752 413.785C267.248 411.998 246.088 396.634 244.957 396.617Z" fill="#050C0F"/>
<path d="M162.249 426.547C166.18 424.986 170.326 423.805 174.333 422.438C182.822 419.473 191.332 416.567 199.86 413.719C215.026 408.493 230.046 402.537 244.957 396.617C246.089 396.634 267.248 411.998 269.752 413.785L334.069 460.438C340.169 464.846 346.419 469.084 352.589 473.397C355.563 475.476 358.674 477.45 361.455 479.781C356.365 482.944 350.64 485.288 345.284 487.991C327.111 497.195 308.868 506.264 290.559 515.197C288.897 516 282.029 519.653 280.765 519.836C280.562 519.866 280.358 519.791 280.156 519.769C263.831 507.804 248.318 494.595 232.519 481.943L162.249 426.547ZM242.046 411.989C226.051 419.429 208.498 424.642 192.509 432.359C197.611 436.964 203.616 441.179 209.283 445.079C215.431 442.075 221.738 439.62 228.034 436.967C238.194 432.688 248.414 428.406 258.5 423.961C257.107 422.539 242.854 412.031 242.046 411.989ZM270.254 433.222C264.972 435.548 224.952 452.114 223.13 454.035L223.106 454.306C223.431 454.442 223.666 454.563 224.022 454.583C228.929 452.632 269.348 435.762 271.105 434.009L271.075 433.53C270.802 433.406 270.553 433.259 270.254 433.222ZM285.395 443.237C276.432 446.701 267.707 450.829 258.895 454.657C252.198 457.565 245.076 460.204 238.593 463.536C238.125 463.777 237.853 463.95 237.57 464.413C237.7 464.925 237.599 464.958 238.067 465.263C250.067 460.183 262.036 454.926 273.94 449.621C277.269 448.137 283.002 446.176 285.717 444.28L285.917 443.784C285.749 443.568 285.636 443.375 285.395 443.237ZM298.273 454.003L268.317 467.415C263.175 469.693 257.553 471.641 252.63 474.31C252.208 474.538 251.903 474.819 251.568 475.156L251.677 475.775C251.818 475.861 252.087 476.065 252.242 476.099C263.354 470.787 274.82 465.957 286.079 460.951C289.931 459.238 294.033 457.76 297.765 455.833C298.382 455.515 298.727 455.314 298.997 454.655C298.72 454.263 298.744 454.175 298.273 454.003ZM313.372 464.237C301.639 469.073 290.151 474.617 278.589 479.854C275.211 481.384 271.814 483.086 268.412 484.528C267.269 485.012 266.286 485.296 265.254 486.046L265.05 486.581L265.415 487.264L265.903 487.272C277.123 481.532 288.97 476.611 300.495 471.486C304.641 469.642 309.057 467.998 313.056 465.878C313.6 465.591 314.026 465.41 314.297 464.827L313.98 464.354L313.372 464.237ZM326.857 475.009C323.465 476.199 320.183 477.931 316.923 479.443L296.807 488.835C292.184 490.949 287.583 493.161 282.943 495.228C281.648 495.805 280.319 496.009 279.103 496.784L278.831 497.356C278.99 497.649 279.107 497.89 279.338 498.133C290.629 493.601 301.648 488.135 312.683 483.015C316.141 481.411 324.601 478.043 327.295 475.97L327.457 475.416C327.001 475.02 327.224 475.112 326.857 475.009Z" fill="white"/>
<path d="M458.08 398.265C472.249 404.507 486.939 409.716 501.498 414.95C518.093 420.738 534.596 426.787 551.001 433.093V433.296L496.76 458.039L479.215 466.231C475.827 467.81 472.31 469.756 468.722 470.798C466.101 469.166 463.14 467.999 460.349 466.679L446.553 460.079L397.133 436.703C393.816 435.169 379.19 429.112 377.519 427.252C378.408 426.247 448.946 401.517 458.08 398.265ZM457.835 399.685L413.334 415.703C402.341 419.561 391.142 423.103 380.322 427.425L438.386 454.639C448.256 459.29 458.063 464.478 468.113 468.709C468.728 468.968 469.171 469.115 469.826 468.95C482.911 463.349 495.684 456.906 508.631 450.98C521.544 445.068 534.846 439.599 547.482 433.142L484.499 410.257C475.562 406.934 466.829 402.762 457.835 399.685Z" fill="#050C0F"/>
<path d="M380.32 427.424C391.14 423.102 402.339 419.561 413.332 415.703L457.833 399.685C466.827 402.762 475.559 406.934 484.496 410.257L547.48 433.142C534.844 439.599 521.542 445.068 508.629 450.98C495.682 456.906 482.909 463.349 469.823 468.95C469.169 469.115 468.726 468.967 468.111 468.709C458.061 464.478 448.254 459.29 438.384 454.639L380.32 427.424ZM468.938 415.197C462.652 417.925 426.012 431.637 423.797 433.917L423.673 434.329C424.074 434.491 424.197 434.602 424.636 434.543L452.794 423.226C457.813 421.257 462.96 419.526 467.886 417.334C468.661 416.99 469.799 416.578 470.286 415.849C470.336 415.774 470.354 415.683 470.388 415.601C469.848 415.373 469.531 415.241 468.938 415.197ZM485.958 421.4L451.453 435.725C448.787 436.843 442.596 438.659 440.642 440.41L440.699 440.915L441.276 441.343C447.987 438.971 454.602 435.827 461.198 433.118C469.129 429.861 477.314 426.888 485.072 423.26C485.697 422.968 486.178 422.76 486.613 422.2C486.402 421.539 486.483 421.703 485.958 421.4ZM501.436 428.161C496.049 430.237 455.493 447.252 454.462 448.544C454.555 449.093 454.439 449.074 454.918 449.428C460.484 447.093 500.516 430.658 501.956 429.193L501.951 428.6L501.436 428.161Z" fill="white"/>
<path d="M14.2655 430.942C12.2575 429.086 5.49943 424.38 4.74805 422.233C8.01369 421.117 11.7151 420.587 15.0966 419.825L37.8184 414.775C58.2619 410.255 78.6344 405.302 99.1861 401.291L99.6429 401.288C102.067 402.686 104.296 404.56 106.555 406.212L118.723 415.06L155.326 441.32C157.16 442.638 158.954 444.048 160.839 445.29C161.738 445.882 164.419 447.036 164.993 447.82C165.089 447.951 165.125 448.118 165.19 448.266C164.157 449.589 160.3 450.252 158.631 450.717C160.073 451.897 167.187 456.925 167.429 458.152C166.218 459.896 160.739 460.591 158.569 461.095C161.436 463.53 165.123 465.429 167.482 468.366C164.372 469.838 160.82 470.484 157.505 471.37L140.909 475.799L106.966 484.857C94.805 488.001 82.5662 490.981 70.505 494.485C68.8246 494.97 67.128 495.367 65.426 495.766C60.3734 490.965 54.8817 486.536 49.6104 481.971C35.1005 469.405 20.3314 457.194 6.10295 444.298C9.11596 443.555 12.1515 442.886 15.1751 442.187C13.4568 440.543 6.43414 435.235 5.76831 434.09C5.55421 433.722 5.64886 433.778 5.7569 433.292C7.66905 431.717 11.8407 431.42 14.2655 430.942ZM98.8272 402.636C80.819 406.52 62.8362 410.519 44.8791 414.63C32.3531 417.429 19.7592 420.057 7.30864 423.173L42.1391 452.501C50.0519 459.139 58.2684 465.625 65.7838 472.708L70.2876 471.591L162.792 448.293C156.842 443.934 150.636 439.912 144.633 435.62C139.297 431.806 100.425 403.04 98.8272 402.636ZM14.7917 432.277C12.4435 432.71 10.1089 433.214 7.79092 433.787C15.0597 440.422 23.0245 446.287 30.5695 452.612C42.6744 462.759 54.47 473.231 66.698 483.246C97.0047 475.07 127.39 467.19 157.851 459.605C160.341 459.07 162.855 458.585 165.312 457.913C162.639 455.568 159.706 453.444 156.819 451.369L108.264 463.4C94.0543 467.007 79.8763 470.854 65.5928 474.152C60.545 470.177 55.8422 465.878 50.9551 461.717L30.7049 444.661C26.8952 441.417 19.8224 434.808 15.9711 432.492C15.4964 432.206 15.3328 432.223 14.7917 432.277ZM16.9109 443.613C14.311 443.972 11.7057 444.452 9.20152 445.254C17.8432 453.346 27.1714 460.733 36.1042 468.498L55.3186 485.035C58.8199 488.047 62.2497 491.273 65.9076 494.081C90.6644 487.907 115.278 481.068 139.951 474.562C145.61 473.07 151.238 471.374 156.912 469.96C159.677 469.308 162.535 468.785 165.26 468.006C162.38 465.942 159.484 463.863 156.831 461.509C136.926 466.363 117.073 471.429 97.2758 476.708C86.9715 479.417 76.4578 481.698 66.3063 484.94C60.8657 480.274 18.471 444.035 16.9109 443.613Z" fill="#050C0F"/>
<path d="M7.30713 423.173C19.7577 420.057 32.3516 417.429 44.8776 414.63C62.8347 410.519 80.8175 406.52 98.8256 402.636C100.423 403.04 139.296 431.806 144.631 435.62C150.634 439.912 156.841 443.934 162.79 448.293L70.2861 471.591L65.7823 472.708C58.2669 465.625 50.0504 459.139 42.1376 452.501L7.30713 423.173Z" fill="#F7B756"/>
<path d="M192.509 432.358C208.498 424.642 226.051 419.428 242.046 411.989C242.854 412.031 257.107 422.539 258.5 423.961C248.414 428.405 238.194 432.687 228.035 436.967C221.738 439.619 215.431 442.074 209.284 445.079C203.616 441.179 197.611 436.963 192.509 432.358Z" fill="#929EEE"/>
<path d="M424.636 434.543C424.198 434.603 424.075 434.492 423.674 434.33L423.798 433.918C426.013 431.638 462.652 417.926 468.939 415.198C469.532 415.242 469.849 415.374 470.389 415.602C470.355 415.684 470.337 415.775 470.287 415.849C469.8 416.579 468.662 416.991 467.887 417.335C462.96 419.527 457.813 421.258 452.795 423.227L424.636 434.543Z" fill="#050C0F"/>
<path d="M441.279 441.344L440.702 440.916L440.646 440.411C442.599 438.66 448.791 436.844 451.456 435.726L485.961 421.401C486.486 421.704 486.405 421.539 486.616 422.2C486.182 422.761 485.701 422.968 485.075 423.261C477.317 426.889 469.132 429.862 461.201 433.119C454.605 435.827 447.99 438.971 441.279 441.344Z" fill="#050C0F"/>
<path d="M454.921 449.429C454.442 449.075 454.557 449.094 454.464 448.545C455.496 447.252 496.052 430.238 501.439 428.161L501.954 428.601L501.959 429.194C500.519 430.659 460.487 447.094 454.921 449.429Z" fill="#050C0F"/>
<path d="M7.78662 433.787C10.1046 433.214 12.4392 432.71 14.7874 432.277C15.3285 432.223 15.4921 432.206 15.9668 432.492C19.8181 434.808 26.8909 441.416 30.7006 444.661L50.9508 461.717C55.8379 465.878 60.5407 470.177 65.5885 474.152C79.872 470.854 94.05 467.007 108.26 463.4L156.815 451.369C159.702 453.444 162.634 455.568 165.308 457.913C162.851 458.585 160.336 459.07 157.847 459.605C127.386 467.19 97.0004 475.07 66.6937 483.246C54.4657 473.231 42.6701 462.759 30.5652 452.612C23.0202 446.287 15.0554 440.422 7.78662 433.787Z" fill="white"/>
<path d="M224.024 454.583C223.669 454.562 223.433 454.442 223.108 454.306L223.132 454.034C224.955 452.114 264.974 435.547 270.256 433.222C270.555 433.259 270.804 433.406 271.077 433.53L271.107 434.008C269.35 435.762 228.932 452.631 224.024 454.583Z" fill="#050C0F"/>
<path d="M238.068 465.263C237.6 464.958 237.702 464.925 237.571 464.413C237.855 463.95 238.126 463.776 238.595 463.536C245.077 460.204 252.2 457.565 258.896 454.657C267.708 450.829 276.433 446.701 285.397 443.237C285.637 443.374 285.75 443.568 285.918 443.784L285.718 444.28C283.003 446.176 277.27 448.137 273.941 449.621C262.038 454.926 250.069 460.183 238.068 465.263Z" fill="#050C0F"/>
<path d="M382.35 444.534C378.196 445.566 374.127 447.058 370.072 448.424L351.583 454.622C349.156 455.417 345.494 457.099 343.095 457.279C342.49 457.325 342.726 457.381 342.259 456.986L342.463 456.417C343.669 455.587 345.184 455.425 346.543 454.909C357.912 450.596 369.687 447.072 381.243 443.276C381.576 443.239 381.957 443.179 382.296 443.205C384.543 443.378 453.751 476.284 454.822 477.496C455.119 477.831 454.997 478.168 454.991 478.587C454.461 479.474 396.857 506.486 392.378 508.273C386.062 505.366 379.822 502.275 373.556 499.261C369.847 497.478 365.93 495.84 362.355 493.815C361.556 493.363 360.75 492.907 360.264 492.102L360.562 491.882C361.569 491.959 362.464 492.282 363.386 492.681C366.033 493.827 368.571 495.331 371.172 496.596C378.279 500.053 385.422 503.436 392.6 506.743C405.125 501.137 417.422 494.985 429.848 489.158L443.697 482.662C446.835 481.186 450.162 479.81 453.073 477.917L408.324 456.678C399.763 452.595 391.144 448.06 382.35 444.534Z" fill="#050C0F"/>
<path d="M9.19873 445.254C11.7029 444.451 14.3082 443.972 16.9081 443.613C18.4682 444.035 60.8629 480.274 66.3035 484.939C76.4551 481.698 86.9687 479.417 97.273 476.708C117.07 471.429 136.924 466.363 156.828 461.509C159.482 463.863 162.377 465.942 165.257 468.006C162.533 468.784 159.674 469.308 156.91 469.96C151.235 471.374 145.607 473.069 139.949 474.561C115.275 481.068 90.6616 487.907 65.9048 494.081C62.2469 491.273 58.8171 488.047 55.3158 485.035L36.1015 468.497C27.1686 460.732 17.8404 453.346 9.19873 445.254Z" fill="white"/>
<path d="M252.243 476.098C252.088 476.064 251.819 475.86 251.678 475.774L251.568 475.155C251.904 474.818 252.209 474.537 252.631 474.309C257.554 471.64 263.176 469.692 268.317 467.414L298.274 454.002C298.745 454.174 298.72 454.262 298.997 454.654C298.728 455.313 298.383 455.514 297.766 455.832C294.034 457.759 289.932 459.237 286.08 460.95C274.821 465.956 263.355 470.786 252.243 476.098Z" fill="#050C0F"/>
<path d="M374.573 473.235C373.723 472.863 372.741 472.349 372.187 471.593C372.76 470.711 388.799 463.922 390.771 463.255C391.58 462.856 392.378 462.422 393.241 462.154C400.355 465.603 407.446 469.096 414.516 472.634C418.28 474.527 422.28 476.296 425.834 478.565C419.919 482.042 413.078 484.531 406.775 487.263C405.873 487.784 404.86 488.138 403.898 488.536C402.925 488.098 402.031 487.629 401.132 487.054C392.172 482.714 383.419 477.816 374.573 473.235Z" fill="#050C0F"/>
<path d="M265.901 487.271L265.413 487.263L265.049 486.581L265.253 486.046C266.285 485.295 267.267 485.011 268.41 484.527C271.812 483.085 275.21 481.384 278.587 479.853C290.149 474.616 301.637 469.072 313.37 464.237L313.979 464.353L314.295 464.826C314.025 465.41 313.598 465.59 313.055 465.878C309.055 467.998 304.64 469.641 300.493 471.485C288.968 476.61 277.122 481.531 265.901 487.271Z" fill="#050C0F"/>
<path d="M141.806 534C138.615 531.038 135.381 528.124 132.106 525.253C127.848 521.585 101.334 499.684 100.461 498.076C100.964 497.477 101.604 497.394 102.344 497.167C109.206 495.059 116.23 493.324 123.154 491.425L154.636 482.697L178.977 476.215C182.058 475.41 185.174 474.281 188.287 473.666C191.385 475.339 242.057 514.032 244.174 516.963C243.567 518.122 241.787 518.554 240.581 518.925C238.327 519.62 225.253 523.723 223.696 523.464L223.129 523.087C223.387 522.495 223.947 522.387 224.53 522.166C230.191 520.03 236.392 518.617 242.22 516.947C230.189 507.193 217.978 497.664 205.592 488.365C200.585 484.534 193.073 478.068 187.954 475.098C177.166 478.434 166.134 481.103 155.223 484.008L124.505 492.516C117.36 494.46 110.08 496.227 103.025 498.467C111.565 506.181 120.486 513.499 129.246 520.962C134.166 525.156 139.33 529.357 143.829 534H141.806Z" fill="#050C0F"/>
<path d="M279.338 498.133C279.108 497.89 278.99 497.649 278.832 497.356L279.103 496.784C280.319 496.009 281.648 495.804 282.943 495.228C287.584 493.161 292.184 490.949 296.807 488.835L316.923 479.443C320.183 477.931 323.465 476.199 326.857 475.009C327.224 475.112 327.001 475.02 327.457 475.416L327.295 475.97C324.602 478.043 316.141 481.411 312.683 483.015C301.648 488.135 290.63 493.601 279.338 498.133Z" fill="#050C0F"/>
<path d="M131.48 504.025C134.165 502.939 137.054 502.233 139.831 501.41C145.296 499.758 150.785 498.185 156.296 496.691C165.775 494.009 175.216 491.189 184.612 488.229C184.725 488.231 184.84 488.218 184.951 488.235C186.234 488.436 212.22 509.219 214.574 511.732C209.515 513.753 203.837 514.909 198.584 516.419C186.287 519.956 173.877 523.313 161.719 527.299C160.907 527.553 160.211 527.714 159.361 527.763C156.453 526.378 134.21 506.963 131.48 504.025Z" fill="#050C0F"/>
</g>
<defs>
<clipPath id="clip0_17_423">
<rect width="551" height="534" fill="white"/>
</clipPath>
</defs>
</svg>
