<svg width="492" height="401" viewBox="0 0 492 401" fill="none" xmlns="http://www.w3.org/2000/svg">
<g clip-path="url(#clip0_17_730)">
<path d="M0 -91.355H492V401H0V-91.355ZM323.051 8.31275C319.226 7.80309 315.195 7.94109 311.336 7.90983C293.473 7.76607 280.82 9.66961 263.618 14.0364C261.341 14.7114 258.718 15.6351 256.36 15.9274C238.422 21.4506 221.801 28.5281 205.667 38.1699C203.6 39.4056 199.251 41.6852 197.639 43.2656C195.001 44.9547 192.546 46.9097 190.062 48.8138C184.362 53.0863 178.859 57.616 173.569 62.3881C169.349 66.2616 165.64 70.7711 161.216 74.408C149.255 84.2407 131.977 89.7677 116.585 87.6521C113.109 87.1742 109.716 86.1765 106.229 85.7356C93.713 84.1517 82.1232 86.8597 71.956 94.4003C51.3366 109.693 42.2864 144.002 38.8107 168.131C36.4115 185.49 35.6809 203.04 36.6288 220.538C31.4862 220.53 27.0336 221.111 23.2072 224.941C21.2502 226.901 20.2548 229.128 19.8667 231.851C19.245 236.212 19.7243 241.209 19.7295 245.645L19.6822 272.848C19.6738 302.666 19.3502 332.506 19.6911 362.322C19.706 363.623 19.7053 366.215 20.6025 367.168C23.5336 368.099 43.2697 367.585 47.6595 367.59L121.472 367.557L376.136 367.88C392.179 367.908 408.221 367.833 424.263 367.656L439.519 367.672C441.665 367.688 444.124 367.979 446.236 367.778C446.539 367.749 446.792 367.643 447.07 367.529C447.35 367.02 447.364 366.962 447.32 366.383C446.415 365.666 445.504 365.86 444.396 365.853C443.881 365.85 444.073 365.867 443.546 365.66C445.89 357.08 447.966 348.293 449.956 339.626C444.776 339.318 439.468 339.551 434.276 339.534L403.254 339.445C405.328 348.118 406.681 357.186 409.267 365.702C407.879 366.279 391.742 365.902 388.68 365.904L349.341 365.955C345.95 365.967 335.771 366.449 333.09 365.818L332.858 364.747C331.926 354.681 330.229 344.636 328.816 334.626C327.13 322.67 325.653 310.668 323.852 298.73C323.334 298.376 323.242 298.431 322.604 298.456L322.257 298.775C322.159 301.304 322.868 304.087 323.228 306.598L325.268 321.062L331.419 365.26L331.123 365.753C328.758 366.2 325.98 365.899 323.559 365.894L308.878 365.871C308.482 355.539 309.081 344.981 309.405 334.644C309.966 316.726 310.654 298.743 310.903 280.821C316.539 280.812 358.779 280.355 361.023 281.218C359.902 284.379 354.741 297.56 354.458 299.907C354.852 300.337 355.215 300.602 355.714 300.903C355.209 302.498 353.364 306.806 353.382 308.209C353.391 308.839 353.689 309.391 353.958 309.943C352.651 312.197 349.675 314.931 350.488 317.793C350.808 318.919 351.86 319.606 352.839 320.109C354.791 321.112 356.606 320.454 357.643 320.951C358.82 321.516 359.371 322.795 360.771 323.154C362.691 323.647 364.122 322.822 366.036 323.821L366.366 334.365L366.538 334.431C376.29 333.172 391.381 325.205 399.48 319.862C404.502 316.549 409.283 312.66 414.462 309.622L414.748 309.457C416.035 316.381 417.941 323.129 419.064 330.114C415.689 330.075 404.693 329.262 402.258 330.925C401.356 331.541 400.822 332.475 400.696 333.555C400.583 334.521 400.772 335.471 401.42 336.218C402.434 337.388 404.108 337.724 405.578 337.831C408.757 338.064 412.081 337.876 415.274 337.875C421.799 337.903 428.324 337.883 434.849 337.817C437.748 337.778 440.647 337.775 443.547 337.808C445.633 337.843 447.87 338.042 449.944 337.815C451.001 337.7 452.138 337.396 452.932 336.647C453.64 335.979 453.963 335.1 453.98 334.137C454 333.029 453.589 332.002 452.796 331.225C452.184 330.626 451.404 330.22 450.552 330.108C447.971 329.768 444.941 330.064 442.308 330.071C436.387 330.107 430.466 330.108 424.546 330.076C426.433 319.341 429.054 308.445 434.467 298.882C436.489 300.286 438.498 301.433 441.034 301.535C444.724 301.684 448.261 299.78 450.917 297.336C453.046 295.377 454.551 292.915 455.791 290.322C457.67 286.394 464.359 265.655 464.363 261.765C464.364 260.74 463.501 260.136 462.812 259.492C463.056 256.755 466.429 249.8 467.591 246.72C468.811 243.412 469.945 240.073 470.992 236.706C475.737 221.382 478.809 205.588 480.153 189.602C483.669 146.073 469.907 102.909 441.852 69.4581C418.148 41.6611 386.446 21.866 351.078 12.7776C344.104 11.0111 337.047 9.42392 329.863 8.84309C327.627 8.53201 325.305 8.47575 323.051 8.31275ZM125.712 -52.3478C125.434 -49.2399 125.036 -38.0773 126.005 -35.7891C126.368 -35.9025 126.799 -35.8934 126.955 -36.2752C127.473 -37.5402 127.13 -41.9551 127.13 -43.5313C130.101 -43.5353 133.077 -43.5752 136.048 -43.5211C136.036 -41.7632 135.509 -37.4344 136.455 -36.0122L137.132 -35.6492C137.3 -35.8367 137.517 -35.9905 137.637 -36.2122C137.931 -36.7574 137.691 -47.9929 137.647 -49.053C137.593 -50.347 137.42 -51.4106 136.819 -52.5717L137.036 -52.3139L136.521 -52.1165C135.889 -49.7428 135.974 -47.4099 136.003 -44.9807C133.091 -44.9683 130.171 -44.9159 127.258 -44.9649C127.285 -46.7937 127.833 -50.4354 126.893 -52.0007C126.49 -52.1875 126.149 -52.2747 125.712 -52.3478ZM344.251 -51.3024C343.992 -50.4454 344.163 -48.997 343.649 -48.3767L342.563 -48.285C342.248 -47.8161 342.27 -47.8058 342.321 -47.2385C342.811 -46.8999 343.193 -46.8816 343.769 -46.8089C345.376 -44.3425 341.669 -36.9272 346.905 -35.9482C347.637 -35.8117 348.781 -35.728 349.456 -36.0752C349.525 -36.5185 349.579 -36.9546 349.613 -37.4022C348.548 -37.3892 347.18 -37.182 346.38 -38.0374C344.757 -39.7707 345.718 -44.6847 345.698 -46.957C346.821 -46.955 347.832 -46.864 348.859 -47.3872L349.078 -47.7943C348.722 -48.2297 348.269 -48.3829 347.725 -48.4488C347.076 -48.5276 346.369 -48.4858 345.715 -48.4804C345.714 -49.3885 345.867 -50.2709 345.403 -51.0637C345.01 -51.183 344.659 -51.2607 344.251 -51.3024ZM357.343 -48.6481C355.005 -48.3948 352.988 -46.8939 352.072 -44.7265C351.156 -42.559 351.485 -40.065 352.933 -38.2105C354.38 -36.3555 356.717 -35.4304 359.041 -35.7939C362.518 -36.3372 364.926 -39.5591 364.465 -43.0504C364.004 -46.5422 360.842 -49.0272 357.343 -48.6481ZM154.547 -48.6416C154.422 -47.3809 157.994 -37.5493 158.959 -36.393C159.29 -35.9953 159.408 -36.0309 159.887 -36.016C161.698 -37.232 163.068 -43.0922 164.128 -45.2881C165.258 -42.4902 166.184 -38.1619 168.23 -35.9771C168.5 -35.8804 168.659 -35.728 168.934 -35.8876C170.244 -36.6468 172.646 -44.6899 173.305 -46.5823C173.595 -47.5014 173.711 -47.6306 173.404 -48.5816L173.087 -48.7416C171.488 -47.7329 169.446 -40.59 168.622 -38.5393C167.789 -40.3616 165.577 -47.7708 164.229 -48.3043C162.594 -47.443 160.569 -40.5232 159.765 -38.6331C158.617 -41.4723 157.637 -45.9967 155.641 -48.2796C155.278 -48.4089 154.921 -48.5497 154.547 -48.6416ZM244.775 -48.4744C243.454 -48.2973 241.895 -48.1137 240.817 -47.2837C240.847 -46.7679 240.744 -46.5337 241.101 -46.1392C243.123 -46.132 246.234 -47.9598 247.803 -46.2752C248.638 -45.3783 248.751 -44.0601 248.891 -42.9066C246.435 -43.0566 242.933 -43.424 240.896 -41.7469C240.277 -41.2382 239.886 -40.5285 239.813 -39.7274C239.756 -39.1057 239.972 -38.5014 240.158 -37.9172C241.022 -36.7935 242.06 -35.8641 243.509 -35.6251C245.244 -35.339 247.841 -37.6455 248.83 -37.294L248.923 -36.2338C249.393 -35.9319 249.684 -36.0997 250.217 -36.1809C250.709 -36.6694 250.608 -37.2815 250.617 -37.9576C250.653 -40.5424 251.146 -45.184 249.187 -47.1304C248.004 -48.3058 246.357 -48.4469 244.775 -48.4744ZM264.129 -48.494C262.656 -48.1297 261.741 -47.9216 260.841 -46.5864L260.847 -46.2406C261.618 -45.8335 262.211 -46.0356 263.013 -46.2848C264.292 -46.6821 266.033 -47.4726 267.354 -46.8368C268.38 -46.3434 268.796 -45.3668 269.138 -44.3499C269.075 -44.0147 269.127 -43.7631 268.821 -43.5564C266.605 -42.0632 261.345 -44.227 260.347 -40.4102C260.103 -39.4779 260.313 -38.7297 260.616 -37.8474C261.698 -36.644 262.723 -36.1535 264.358 -36.0574C266.083 -35.9559 267.529 -36.542 269.065 -37.2243C269.346 -36.9233 269.44 -36.5949 269.595 -36.2194L269.996 -35.9223C270.39 -36.0131 270.438 -35.9261 270.623 -36.2141C271.43 -37.4777 271.13 -43.4543 270.657 -45.031C270.244 -46.4039 269.384 -47.5073 268.082 -48.1358C266.905 -48.7045 265.399 -48.602 264.129 -48.494ZM279.586 -48.5109C277.48 -48.1078 275.819 -47.4009 274.628 -45.5286C273.723 -44.1047 273.472 -42.3243 273.86 -40.6895C274.244 -39.0346 275.303 -37.6162 276.781 -36.7786C278.353 -35.8766 280.229 -35.5847 281.98 -36.1103C282.969 -36.4069 284.241 -37.0791 284.732 -38.034C284.771 -38.1104 284.793 -38.1946 284.824 -38.2749L284.649 -38.6466C283.493 -38.8769 282.913 -38.3388 281.964 -37.7369C280.409 -37.4623 278.665 -37.2916 277.316 -38.3129C276.236 -39.1317 275.75 -40.7819 275.654 -42.0757C275.549 -43.4958 276.044 -44.5293 276.969 -45.5798C277.625 -46.3252 278.435 -46.8226 279.445 -46.8781C281.436 -46.9875 283.202 -45.1896 284.92 -45.3116L285.095 -45.6615C284.611 -46.7803 283.998 -47.4965 282.84 -47.9585C281.8 -48.373 280.697 -48.4902 279.586 -48.5109ZM301.76 -48.4859C299.472 -48.0928 297.576 -46.4919 296.803 -44.3014C296.031 -42.1108 296.503 -39.6736 298.038 -37.9306C299.572 -36.1877 301.929 -35.4116 304.198 -35.9025C307.603 -36.6396 309.796 -39.965 309.133 -43.3882C308.47 -46.8112 305.194 -49.076 301.76 -48.4859ZM327.646 -48.7195C327.336 -46.8348 326.973 -37.52 327.914 -36.2805C327.991 -36.1795 328.094 -36.1016 328.184 -36.0117C328.828 -36.5863 329.011 -37.633 329.081 -38.4874C329.185 -39.7601 329.09 -41.0944 329.06 -42.3719L329.085 -42.7003C329.177 -43.8198 329.255 -45.1141 330.225 -45.8628C331.249 -46.6537 332.808 -46.7256 333.147 -48.0055L332.934 -48.4307C332.124 -48.6255 331.458 -48.2486 330.778 -47.8347C330.196 -47.4802 329.632 -47.0981 329.087 -46.6895C328.802 -47.4366 329.021 -48.0031 328.42 -48.5458L327.646 -48.7195ZM146.046 -48.2668C142.57 -47.6588 140.259 -44.3301 140.901 -40.8583C141.542 -37.3868 144.892 -35.1063 148.354 -35.7828C151.769 -36.4502 154.009 -39.7447 153.376 -43.1686C152.743 -46.5918 149.473 -48.8664 146.046 -48.2668ZM181.399 -48.4277C181.42 -45.9074 185.535 -38.862 186.656 -35.9189L186.517 -35.5939C186.009 -34.4332 185.488 -33.3114 184.275 -32.7489C183.461 -32.371 182.601 -32.4676 181.73 -32.5123L181.404 -32.2378C181.618 -31.6853 181.848 -31.4415 182.383 -31.1603C183.143 -30.7597 184.147 -30.7396 184.938 -31.0511C187.279 -31.9748 188.584 -36.4617 189.427 -38.647C190.2 -40.4818 193.128 -46.4002 192.844 -47.9662L192.346 -48.3232C190.547 -47.1417 188.594 -40.4438 187.697 -38.1907C186.596 -40.3607 183.962 -47.0954 182.445 -48.3251L181.399 -48.4277ZM199.016 -48.2808C195.592 -47.3372 193.577 -43.7994 194.509 -40.3703C195.441 -36.9411 198.97 -34.913 202.4 -35.8362C205.844 -36.7627 207.881 -40.3131 206.945 -43.7568C206.008 -47.2007 202.455 -49.2284 199.016 -48.2808ZM210.241 -48.4809C210.181 -45.4826 209.326 -39.5226 211.444 -37.1748C212.277 -36.254 213.455 -35.7227 214.697 -35.7078C216.322 -35.6742 217.12 -36.6252 218.468 -36.8656C219.342 -37.0219 219.567 -35.9285 220.382 -35.9362C221.557 -37.2786 220.96 -43.6662 220.964 -45.7376C220.976 -46.5873 221.088 -47.5024 220.673 -48.2692L220.321 -48.473L219.683 -48.2829C218.083 -45.1563 221.309 -38.9851 216.689 -37.5022C215.66 -37.1724 214.445 -37.219 213.491 -37.7532C212.675 -38.2105 212.22 -38.9524 212.023 -39.8544C211.468 -42.3993 212.725 -45.8939 211.523 -48.1621C211.091 -48.4176 210.734 -48.4355 210.241 -48.4809ZM224.852 -48.4599C224.848 -46.0696 224.375 -37.7373 225.245 -36.0636L225.625 -35.9814C226.235 -36.504 226.429 -37.0902 226.483 -37.8777C226.6 -39.575 226.434 -41.3209 226.492 -43.0297C226.514 -43.1225 226.534 -43.2153 226.556 -43.3079C226.819 -44.4024 227.118 -45.2202 228.102 -45.8475C229.039 -46.445 231.341 -47.0507 231.718 -48.044C231.557 -48.261 231.498 -48.4545 231.214 -48.5161C229.946 -48.7909 227.768 -47.5018 226.621 -46.9293C226.463 -47.3965 226.435 -47.705 226.408 -48.1907C225.864 -48.4124 225.43 -48.4288 224.852 -48.4599ZM288.593 -48.5027C288.428 -44.4921 288.37 -40.4001 288.593 -36.392L288.93 -36.0343C289.302 -36.0881 289.517 -36.017 289.762 -36.3449C290.716 -37.6239 290.205 -41.4867 290.193 -43.0883C290.215 -43.1667 290.235 -43.2451 290.258 -43.323C290.673 -44.7452 291.317 -45.4835 292.615 -46.1746C293.444 -46.6163 294.555 -46.9926 295.131 -47.7514C294.991 -48.3056 295.008 -48.3488 294.565 -48.6984C292.887 -48.6619 291.867 -46.7302 290.388 -46.6356C290.262 -47.1165 290.195 -47.5903 290.129 -48.0824C289.612 -48.4764 289.222 -48.4274 288.593 -48.5027ZM312.189 -48.4961C311.906 -45.8174 311.372 -39.8784 313.096 -37.7638C313.99 -36.6685 315.331 -36.0804 316.727 -36.0021C318.383 -35.9093 319.679 -36.3636 320.919 -37.4301C321.74 -36.8377 320.864 -35.9468 322.502 -36.1266C323.506 -37.4412 323.024 -43.682 323.02 -45.7376C323.025 -46.6344 323.119 -47.4381 322.666 -48.2378C322.061 -48.5237 322.07 -48.4476 321.425 -48.2254C320.649 -45.0379 322.707 -39.9654 319.248 -37.9859C318.318 -37.4532 317.178 -37.2786 316.151 -37.6301C315.275 -37.9301 314.459 -38.6456 314.088 -39.5019C313.014 -41.9839 314.821 -46.1846 313.349 -48.2472C312.961 -48.3422 312.584 -48.4333 312.189 -48.4961ZM113.968 -23.0321C113.489 -21.1444 113.289 -7.13824 113.96 -5.62656C114.083 -5.3525 114.316 -5.17268 114.544 -4.99285L115.001 -4.94429C115.329 -5.50973 115.401 -6.05354 115.506 -6.68629C115.824 -6.5228 115.997 -6.37424 116.273 -6.1545C117.664 -5.05007 119.351 -4.75965 121.083 -5.01496C122.154 -5.17267 123.025 -5.5756 123.919 -6.17229C125.339 -7.75033 126.252 -9.63945 126.092 -11.8137C125.969 -13.4913 125.213 -15.0539 123.909 -16.1266C122.55 -17.244 120.825 -17.6469 119.096 -17.4344C117.709 -17.2637 116.445 -16.6488 115.271 -15.9179C115.291 -17.5575 115.852 -21.5103 114.945 -22.7878L113.968 -23.0321ZM243.511 -22.2758C243.232 -21.5617 243.06 -21.129 243.202 -20.3424C243.667 -19.7765 243.802 -19.738 244.499 -19.487C244.863 -20.165 245.027 -20.4722 244.986 -21.2694C244.538 -21.9387 244.316 -22.0902 243.511 -22.2758ZM156.785 -21.7651C156.384 -21.6368 156.094 -21.2882 156.039 -20.8703C155.985 -20.453 156.177 -20.0414 156.532 -19.8149C156.887 -19.5885 157.34 -19.5875 157.696 -19.8125C158.158 -20.1049 158.331 -20.6948 158.099 -21.1901C157.868 -21.6858 157.305 -21.932 156.785 -21.7651ZM258.951 -22.0772C258.703 -21.4978 258.567 -20.9377 258.507 -20.3083C258.378 -18.9716 258.28 -6.29009 258.56 -5.52464C258.661 -5.25009 258.768 -5.14671 258.938 -4.93851C259.477 -4.79283 259.485 -4.76879 259.992 -4.99189C260.897 -7.87919 258.922 -13.6663 262.094 -15.3982C263.162 -15.9814 264.781 -16.0131 265.925 -15.652C266.658 -15.4208 267.402 -14.8746 267.71 -14.1476C267.88 -13.748 267.925 -13.2811 267.991 -12.8566C268.015 -10.7977 267.526 -6.76898 268.576 -4.98179L269.062 -4.73753C269.514 -5.02266 269.481 -5.21162 269.58 -5.716C270.011 -7.90707 270.234 -13.5153 268.95 -15.3179C268.106 -16.5016 266.987 -17.3003 265.528 -17.4979C263.798 -17.7147 262.055 -17.206 260.714 -16.092C260.537 -15.9468 260.362 -15.7987 260.19 -15.6472C260.206 -17.1695 260.687 -20.6593 259.628 -21.7892L258.951 -22.0772ZM321.641 -21.7214C321.103 -21.3805 320.927 -20.6766 321.243 -20.1227C321.559 -19.5688 322.254 -19.3615 322.821 -19.6519C323.211 -19.852 323.46 -20.2506 323.469 -20.6891C323.478 -21.1281 323.245 -21.5363 322.863 -21.7517C322.482 -21.9676 322.012 -21.9555 321.641 -21.7214ZM250.036 -20.8549C249.53 -20.1789 249.431 -19.8597 249.397 -19.0101C249.37 -18.3518 249.425 -17.9422 249.073 -17.3815L248.249 -17.169C248.105 -16.6656 248.082 -16.5954 248.227 -16.0978C248.326 -16.0665 248.425 -16.0377 248.523 -16.005C248.825 -15.9035 249.041 -15.8001 249.308 -15.6347C249.592 -12.7498 248.405 -7.48251 250.799 -5.41933C251.592 -4.73657 252.518 -4.6582 253.519 -4.76638C254.413 -4.86255 255.446 -4.88178 256.035 -5.64484C256.088 -5.71455 256.134 -5.79004 256.184 -5.86264C255.683 -6.23864 255.953 -6.13431 255.392 -6.21557C254.265 -6.25691 252.87 -6.16075 251.973 -6.96371C250.149 -8.5956 251.061 -13.5028 251.043 -15.8223C252.206 -15.7819 253.99 -15.5405 254.912 -16.4012C254.967 -16.4516 255.005 -16.5161 255.052 -16.5738C254.794 -17.0459 254.675 -17.07 254.169 -17.2253C253.282 -17.4965 251.994 -17.3056 251.052 -17.3056C251.088 -18.3552 251.273 -19.5466 250.84 -20.5227C250.576 -20.6367 250.31 -20.7679 250.036 -20.8549ZM129.418 -17.72C128.745 -15.1183 128.732 -8.84995 130.134 -6.58098C130.729 -5.61694 131.68 -5.05728 132.78 -4.85197C134.829 -4.47021 136.431 -5.54002 138.181 -6.44731C138.416 -5.74052 138.449 -4.94236 139 -4.43799C139.548 -4.60867 139.588 -4.67792 139.957 -5.12652C140.351 -8.172 140.058 -11.5771 140.015 -14.6553C140.015 -15.6242 140.088 -16.354 139.531 -17.1791L139.055 -17.4599C138.562 -17.0142 138.484 -16.6454 138.426 -15.9809C138.221 -13.6235 138.663 -11.2459 138.369 -8.88072C137.37 -7.63253 136.382 -6.58098 134.713 -6.39346C133.654 -6.27422 132.65 -6.40981 131.831 -7.14449C129.805 -8.96149 131.542 -16.8199 130.473 -17.4272C130.221 -17.57 129.713 -17.6585 129.418 -17.72ZM146.615 -17.5089C145.217 -17.0224 144.254 -16.6055 143.565 -15.227C143.263 -14.6241 143.126 -13.9331 143.313 -13.2706C143.613 -12.2036 144.623 -11.6358 145.575 -11.2487C146.631 -10.8194 147.69 -10.5246 148.806 -10.3006C149.673 -10.1265 150.702 -9.83851 151.257 -9.08891C151.568 -8.66965 151.555 -7.89986 151.419 -7.42337C151.315 -7.05939 151.12 -6.80024 150.782 -6.60839C148.437 -5.27605 145.237 -7.55079 142.818 -7.2022C142.702 -6.77716 142.612 -6.83822 142.845 -6.51175C143.688 -5.33038 145.684 -4.84043 147.042 -4.69186C147.756 -4.61397 148.471 -4.65147 149.185 -4.69475C150.475 -5.00199 151.94 -5.32558 152.719 -6.51704C153.184 -7.2272 153.401 -8.20374 153.188 -9.03362C152.941 -9.99622 152.176 -10.5924 151.334 -11.028C149.807 -11.818 145.657 -12.0983 145.276 -13.9168C145.153 -14.4942 145.306 -15.0962 145.69 -15.5448C146.281 -16.2343 147.246 -16.3093 148.081 -16.2213C149.39 -16.0833 150.756 -15.604 152.007 -15.2006L151.682 -15.3463L152.188 -15.1381L152.637 -15.577C152.538 -16.1569 152.357 -16.3564 151.868 -16.6945C150.403 -17.707 148.314 -17.6556 146.615 -17.5089ZM167.276 -17.5248C166.377 -17.1825 165.073 -16.079 164.228 -16.08C163.991 -16.6541 163.868 -17.131 163.392 -17.5493C162.822 -17.5474 162.923 -17.5243 162.519 -17.194C162.474 -14.701 161.984 -7.18201 162.572 -5.2097C163.133 -5.03132 163.163 -5.04189 163.724 -5.22652C164.556 -6.47617 164.07 -11.5733 164.094 -13.3821C165.129 -14.7702 165.817 -15.4347 167.439 -16.0526L167.738 -16.0559C168.931 -16.0603 170.063 -15.9795 170.921 -15.0462C172.94 -12.8518 170.429 -5.75591 172.557 -4.98756C173.156 -5.21451 173.154 -5.1972 173.462 -5.75639C173.476 -8.64849 174.205 -14.1908 172.002 -16.3973C171.07 -17.3291 169.725 -17.6388 168.448 -17.5984C168.056 -17.583 167.666 -17.559 167.276 -17.5248ZM180.983 -17.521C179.065 -16.8108 177.777 -15.9708 176.877 -14.063C176.105 -12.4267 176.086 -10.4871 176.743 -8.80908C177.371 -7.20412 178.609 -5.9891 180.191 -5.3198C181.887 -4.60194 183.913 -4.57839 185.596 -5.34625C186.309 -5.67128 186.81 -6.0492 187.162 -6.76128L186.985 -7.15411C185.881 -7.50559 185.06 -7.00506 184.074 -6.54588C182.089 -6.45164 180.769 -6.48434 179.222 -7.89169C178.793 -8.28066 178.504 -8.62252 178.231 -9.12786C178.22 -9.7736 178.222 -9.73465 178.658 -10.2155C181.341 -11.3401 185.364 -10.5141 188.296 -10.7025C188.032 -12.7316 187.805 -15.0154 186.093 -16.404C184.645 -17.5792 182.762 -17.6647 180.983 -17.521ZM193.385 -17.4921C192.184 -16.893 191.191 -16.2795 190.733 -14.9438C190.518 -14.3192 190.528 -13.5047 190.836 -12.9095C192.348 -9.98804 198.718 -10.9776 199.121 -8.13209C198.844 -7.39789 198.483 -7.0416 197.772 -6.7435C194.633 -5.42606 191.593 -8.21383 190.51 -7.22431L190.351 -6.51944C191.796 -5.21931 194.061 -4.79091 195.951 -4.8486C196.03 -4.85101 196.11 -4.86015 196.19 -4.86543C197.49 -5.07267 199.263 -5.32028 200.113 -6.45549C200.606 -7.11228 200.927 -8.14845 200.728 -8.9692C200.499 -9.91689 199.92 -10.4564 199.092 -10.8963C197.128 -11.9387 193.817 -11.8022 192.477 -13.6259C192.373 -14.4265 192.457 -14.6058 192.738 -15.3333C193.627 -16.1247 194.656 -16.1295 195.796 -16.0771C197.151 -16.0146 198.283 -15.7458 199.545 -15.2573L199.958 -15.4015C199.827 -16.1026 199.533 -16.506 198.93 -16.9041C197.379 -17.9292 195.154 -17.6917 193.385 -17.4921ZM206.152 -17.5061C204.903 -16.9829 203.526 -16.5041 202.975 -15.1414C202.696 -14.4524 202.604 -13.7923 202.945 -13.1028C204.268 -10.4318 211.367 -10.3381 211.381 -7.99025C210.841 -7.16469 209.994 -6.5906 209.027 -6.39587C206.825 -5.92948 204.95 -7.50366 202.891 -7.42337C202.716 -6.82764 202.734 -6.82091 202.969 -6.242C204.368 -5.04862 206.901 -4.78466 208.692 -4.89573C210.296 -5.1097 211.644 -5.55107 212.667 -6.89687C212.992 -7.32384 213.196 -7.84505 213.145 -8.38837C213.07 -9.18941 212.465 -10.0606 211.786 -10.4862C209.614 -11.8469 206.246 -11.7353 204.587 -13.7971C204.458 -14.5043 204.498 -14.6024 204.763 -15.2765C205.479 -15.9554 206.105 -16.0848 207.056 -16.0487C208.666 -15.9877 210.412 -15.1736 211.979 -15.4958L212.283 -15.8516C211.812 -16.7348 210.672 -17.0339 209.749 -17.3229C208.539 -17.7022 207.4 -17.6099 206.152 -17.5061ZM286.326 -17.4864C284.782 -17.169 283.53 -16.8382 282.283 -15.8122C281.689 -16.4396 281.901 -17.081 281.121 -17.5416L280.483 -17.1142C279.986 -14.4793 279.911 -2.0517 280.983 -0.0625687L281.42 -0.108253C282.425 -1.99257 282.149 -4.30432 282.094 -6.37471C282.255 -6.35933 282.421 -6.3699 282.578 -6.32903C282.68 -6.30259 283.142 -6.00497 283.21 -5.96458C284.963 -4.92313 287.653 -4.44135 289.643 -5.00632C290.897 -5.36212 291.743 -6.22903 292.324 -7.36568C293.281 -9.23797 293.517 -11.4382 292.768 -13.422C292.171 -15.0025 291.002 -16.2862 289.452 -16.9719C288.446 -17.4171 287.413 -17.4998 286.326 -17.4864ZM300.052 -17.494C298.374 -17.107 297.173 -16.9762 296.125 -15.4987L296.512 -14.9053C298.626 -15.165 301.731 -16.7233 303.689 -15.3039C304.214 -14.9231 304.513 -14.3736 304.577 -13.7288C304.623 -13.2557 304.592 -12.7628 304.572 -12.2883C302.691 -11.2031 296.869 -13.5264 295.619 -9.50963C295.357 -8.66436 295.514 -7.75898 295.752 -6.93053C296.67 -5.61743 297.523 -4.94332 299.14 -4.68465C301.17 -4.36009 304.455 -6.16652 304.782 -5.90784L304.982 -5.07218C305.533 -4.95486 305.75 -4.94333 306.267 -5.17412C306.742 -7.38635 306.656 -13.6504 305.344 -15.5439C304.475 -16.7973 303.093 -17.2801 301.636 -17.4681C301.106 -17.5368 300.584 -17.5258 300.052 -17.494ZM316.155 -17.5392C314.951 -17.2488 314.202 -16.8502 313.184 -16.1622C312.874 -15.9521 312.556 -15.7516 312.243 -15.5448C312.095 -16.0357 312.068 -16.4916 311.986 -16.9906C311.923 -17.3748 311.931 -17.2565 311.647 -17.6417C311.234 -17.695 311.086 -17.4599 310.753 -17.231C310.451 -15.6477 310.089 -6.01987 310.629 -5.04862C310.693 -4.93275 310.79 -4.83803 310.87 -4.73273C311.191 -4.84813 311.669 -4.90534 311.847 -5.21691C313.312 -7.77725 310.223 -13.9413 314.308 -15.2914C315.615 -15.7232 317.47 -15.44 318.528 -16.404L318.501 -16.7555C317.712 -17.308 317.149 -17.5604 316.155 -17.5392ZM321.468 -17.6436C321.438 -15.604 320.925 -5.91313 321.804 -4.88515L323.118 -4.67888C323.14 -8.39943 323.647 -13.8408 322.969 -17.3354C322.437 -17.5888 322.046 -17.608 321.468 -17.6436ZM332.051 -17.5152C331.087 -17.0628 330.255 -16.5978 329.406 -15.9516C328.763 -16.53 329.559 -16.8829 328.656 -17.3325L327.667 -17.2527C326.893 -15.9978 327.18 -7.13584 327.355 -5.21835C327.847 -4.91496 327.854 -4.92794 328.43 -4.9991C329.814 -6.52136 329.042 -11.343 329.06 -13.3499C330.142 -14.7919 330.931 -15.4443 332.676 -15.8944L333.006 -15.8727C334.194 -15.7872 335.255 -15.717 336.045 -14.7096C338.192 -11.9714 335.983 -6.83678 337.511 -5.00102C338.048 -5.06689 338.072 -5.11209 338.474 -5.48232C339.198 -7.934 339.346 -12.7296 338.149 -15.0025C337.555 -16.1405 336.526 -16.9902 335.297 -17.358C334.229 -17.6748 333.146 -17.583 332.051 -17.5152ZM347.241 -17.4859C345.22 -16.8796 344.023 -16.2396 342.964 -14.3514C342.082 -12.7806 341.81 -10.7016 342.364 -8.97545C342.855 -7.4455 343.941 -6.4401 345.352 -5.74196C347.144 -4.85534 349.478 -4.44424 351.412 -5.09718C352.254 -5.38135 352.894 -5.88332 353.488 -6.52762L353.537 -6.97525C352.223 -7.39452 350.721 -6.48915 349.36 -6.31317C347.751 -6.33385 346.297 -6.55117 345.139 -7.77485C344.54 -8.40856 344.062 -9.28268 344.044 -10.165C344.978 -11.0146 353.183 -10.6722 354.962 -10.7588C354.857 -12.7042 354.588 -14.4269 353.104 -15.8271C351.588 -17.257 349.516 -17.6109 347.506 -17.5027L347.241 -17.4859ZM360.639 -17.5344C359.368 -16.9584 358.135 -16.454 357.597 -15.064C357.295 -14.2832 357.185 -13.2744 357.609 -12.5176C358.89 -10.228 365.642 -10.9458 365.491 -8.40327C365.457 -7.82053 365.155 -7.28586 364.674 -6.95554C362.087 -5.15681 358.999 -7.81091 357.222 -6.96612C357.386 -6.28048 357.914 -5.95544 358.508 -5.60925C359.954 -4.76495 361.637 -4.7486 363.262 -4.71206C364.906 -5.18374 366.012 -5.56839 366.897 -7.11421C367.24 -7.71378 367.478 -8.40712 367.261 -9.09661C366.894 -10.2592 365.462 -10.9117 364.415 -11.2978C362.809 -11.8897 359.994 -11.9546 359.11 -13.485C359.103 -14.1928 359.191 -14.5476 359.65 -15.1068C360.23 -15.8117 361.259 -16.1713 362.146 -16.1891C363.585 -16.2184 365.652 -14.84 366.739 -15.1227L366.895 -15.717C366.265 -16.7738 365.172 -16.9801 364.044 -17.2647C362.881 -17.5585 361.833 -17.6171 360.639 -17.5344ZM372.385 -17.5085C371.177 -17.0253 370.237 -16.6829 369.681 -15.4357C369.312 -14.6063 368.988 -13.5451 369.439 -12.6849C370.765 -10.1563 377.576 -10.9415 377.478 -8.05853C377.458 -7.46088 377.063 -7.01901 376.577 -6.72668C374.102 -5.23807 370.755 -7.78494 369.356 -6.90409C369.657 -6.12517 370.755 -5.603 371.487 -5.27557C372.696 -4.73465 374.063 -4.6457 375.371 -4.70532C376.67 -5.10969 378.289 -5.48232 378.963 -6.79591C379.358 -7.56666 379.366 -8.65234 379.014 -9.42982C378.459 -10.6602 377.175 -11.2925 375.96 -11.6954C374.489 -12.183 371.954 -12.157 371.143 -13.661C370.829 -14.2433 370.895 -14.4529 371.093 -15.0227C372.204 -15.967 373.698 -16.1122 375.111 -15.9881C376.189 -15.8934 377.092 -15.6708 377.917 -14.9443C378.464 -15.2496 378.452 -15.3679 378.754 -15.8881C378.662 -16.3613 378.668 -16.4766 378.236 -16.7598C376.748 -17.7349 374.096 -17.6426 372.385 -17.5085ZM156.549 -17.4604C156.57 -13.7903 156.152 -8.69273 156.696 -5.16595C157.179 -4.92794 157.528 -4.92073 158.061 -4.91303C158.083 -8.87399 158.461 -13.197 157.977 -17.1123C157.475 -17.3508 157.102 -17.4152 156.549 -17.4604ZM221.818 -17.3974C221.294 -15.6184 224.481 -7.29692 225.45 -5.41068C225.633 -5.05488 225.607 -5.14334 225.951 -4.81735C226.647 -5.0217 226.963 -5.35875 227.324 -5.98958C228.805 -8.57829 229.759 -12.1969 230.752 -15.0597C231.487 -12.7133 232.832 -6.51992 234.488 -4.96736C234.864 -4.94476 234.992 -4.84139 235.296 -5.1169C236.865 -6.53963 238.522 -12.3359 239.343 -14.4909C239.615 -15.2448 240.276 -16.4598 240.095 -17.2171C239.516 -17.3219 239.289 -17.3306 238.746 -17.0041C237.639 -16.3377 235.641 -8.97112 234.971 -7.34259C234.124 -9.81302 232.779 -15.2284 231.079 -16.9329C230.736 -17.0099 230.619 -17.1354 230.304 -16.9075C228.722 -15.7655 227.168 -9.48415 226.379 -7.48203C225.73 -9.43607 223.936 -16.1776 222.7 -17.2863L221.818 -17.3974ZM243.412 -17.4825C243.146 -13.6312 242.975 -9.06247 243.433 -5.23326C243.951 -4.8111 244.234 -4.87698 244.889 -4.82601C244.906 -6.53819 245.398 -16.256 244.569 -17.2445L243.412 -17.4825Z" fill="#FEFEFE"/>
<path d="M323.052 8.31294C322.454 11.0411 322.919 21.7714 322.919 25.3728L322.885 69.5005C303.12 69.4198 283.355 69.4861 263.592 69.7001L263.599 32.4003C263.604 26.305 263.857 20.1194 263.619 14.0366C280.821 9.6698 293.474 7.76626 311.336 7.91002C315.196 7.94127 319.227 7.80328 323.052 8.31294Z" fill="#008D51"/>
<path d="M322.884 69.5005L322.918 25.3727C322.918 21.7714 322.453 11.041 323.051 8.31287C325.305 8.47586 327.627 8.53212 329.863 8.8432L329.849 106.241C327.524 106.984 325.308 107.148 322.893 106.933C322.866 96.34 322.689 85.7222 322.844 75.1323C303.146 74.8842 283.348 74.8957 263.651 75.1193C263.449 108.585 263.47 142.051 263.716 175.515L322.953 175.508C323.049 169.927 323.09 164.346 323.078 158.764C323.087 156.247 322.942 153.62 323.132 151.115C323.042 147.798 322.878 134.44 323.832 131.851C324.376 132.661 324.339 147.957 324.399 150.3C324.842 154.85 326.943 157.983 330.181 161.048C330.047 166.489 329.875 172.072 330.16 177.506C327.722 179.009 326.059 180.433 324.206 182.599C318.756 182.316 313.214 182.494 307.751 182.486L278.631 182.446L190.269 182.518C190.51 168.229 190.242 153.9 190.207 139.607L190.062 48.8139C192.547 46.9098 195.001 44.9548 197.639 43.2657C198.021 45.9828 197.752 49.0552 197.754 51.8132L197.757 69.6308C217.339 69.2601 236.968 69.5846 256.556 69.5567C256.581 51.68 256.516 33.8038 256.36 15.9275C258.718 15.6352 261.341 14.7116 263.618 14.0365C263.856 20.1193 263.604 26.305 263.599 32.4003L263.591 69.7C283.355 69.486 303.119 69.4197 322.884 69.5005ZM197.72 75.0072L197.715 175.517L237.122 175.423C243.608 175.414 250.141 175.632 256.619 175.42C256.39 152.336 256.352 129.251 256.504 106.167C256.522 95.7857 256.348 85.3823 256.514 75.0029L197.72 75.0072Z" fill="white"/>
<path d="M329.864 8.84302C337.048 9.42384 344.105 11.011 351.079 12.7775C386.447 21.8659 418.149 41.6611 441.853 69.458C469.908 102.909 483.67 146.073 480.154 189.602C478.81 205.588 475.738 221.382 470.993 236.706C469.946 240.073 468.812 243.412 467.592 246.72C466.43 249.8 463.057 256.755 462.814 259.492C461.801 259.539 460.857 259.595 459.902 259.971C454.608 262.056 434.911 275.022 430.945 279.332C428.708 281.763 427.205 284.765 427.397 288.148C427.527 290.445 428.574 292.59 429.614 294.6C428.243 296.308 426.745 298.224 424.887 299.419C425.058 293.083 425.443 286.698 426.298 280.415C428.115 267.071 432.624 248.954 439.201 237.115L439.532 237.229C446.359 239.529 454.402 238.241 460.733 235.015C467.314 231.661 471.264 225.712 473.435 218.756C474.647 214.876 478.068 194.456 476.246 191.383C475.995 190.96 475.622 190.722 475.138 190.615C471.051 189.711 457.374 196.13 453.413 198.273C451.497 199.31 449.796 200.584 447.932 201.679L447.65 201.488C447.313 198.788 447.469 195.61 446.624 193.043C446.404 191.675 446.999 189.685 447.214 188.3C447.871 184.06 448.544 178.596 447.361 174.406C447.237 173.965 447.151 173.515 447.057 173.067C447.797 166.873 442.847 155.898 439.061 151.043C435.393 146.341 429.603 141.836 423.517 141.138C419.679 140.698 416.425 141.734 413.426 144.124C404.283 151.408 395.428 166.916 394.207 178.43C393.233 187.616 395.503 197.126 401.404 204.321C405.496 209.31 411.911 214.593 418.571 215.282C417.418 227.965 416.684 240.684 416.37 253.415C416.175 265.384 416.334 277.544 416.986 289.497C417.296 295.185 417.856 300.853 418.268 306.534C417.573 306.985 416.778 307.411 416.141 307.936C416.044 305.247 414.833 302.062 414.034 299.466C411.463 291.097 408.54 283.021 404.869 275.061C403.166 271.369 401.14 267.838 399.443 264.142C399.724 262.962 399.975 261.78 400.415 260.646C400.518 260.616 400.626 260.596 400.725 260.554C401.32 260.302 401.8 258.869 402.053 258.274C403.37 255.185 408.619 243.499 407.65 241.067C407.77 240.466 407.988 239.86 408.159 239.271C409.077 236.884 407.857 230.668 406.877 228.199C405.964 225.897 404.476 223.716 402.093 222.777C398.911 221.523 395.748 222.789 392.833 224.1C391.039 216.623 389.447 209.106 387.578 201.645C386.614 197.798 385.805 193.748 384.155 190.131C382.98 187.556 381.304 185.205 379.359 183.158C374.347 177.882 368.097 174.886 360.819 174.708C361.272 166.946 361.91 159.177 362.144 151.405C362.56 151.202 362.969 150.985 363.37 150.756C367.549 148.322 370.686 139.622 371.869 135.066C373.111 130.286 373.393 125.029 370.703 120.674C368.759 117.527 365.904 115.608 362.346 114.796C360.755 110.407 358.62 106.58 354.255 104.434C346.665 100.702 337.318 103.682 329.85 106.24L329.864 8.84302Z" fill="#008D51"/>
<path d="M197.64 43.2657C199.252 41.6852 203.601 39.4057 205.668 38.17C221.802 28.5282 238.422 21.4506 256.361 15.9275C256.517 33.8037 256.582 51.68 256.556 69.5567C236.968 69.5846 217.339 69.26 197.758 69.6307L197.754 51.8131C197.753 49.0552 198.022 45.9828 197.64 43.2657Z" fill="#008D51"/>
<path d="M36.6296 220.538C35.6817 203.04 36.4123 185.491 38.8116 168.132C42.2873 144.002 51.3375 109.693 71.9568 94.4005C82.124 86.8599 93.7139 84.152 106.23 85.7358C109.717 86.1767 113.11 87.1744 116.586 87.6523C131.978 89.7679 149.256 84.2409 161.217 74.4082C165.641 70.7714 169.35 66.2618 173.57 62.3883C178.86 57.6162 184.363 53.0865 190.063 48.814L190.208 139.607C190.243 153.9 190.511 168.229 190.269 182.518L278.632 182.446L307.752 182.486C313.215 182.494 318.756 182.316 324.207 182.599C320.88 187.43 318.339 193.155 315.661 198.391C312.461 204.649 309.102 210.818 305.918 217.084C303.846 221.162 301.866 225.767 299.202 229.475L273.167 229.363C268.324 229.345 263.372 229.128 258.541 229.435C258.23 229.883 258.186 230.088 258.079 230.609C255.726 231.707 255.033 229.233 252.091 232.069C243.236 231.855 235.307 225.217 227.425 232.799L227.255 232.966C220.129 231.957 212.887 229.261 206.018 227.108C192.618 222.91 179.329 218.334 165.898 214.244C164.559 206.149 162.271 188.121 158.879 181.281C157.26 177.986 154.847 175.148 151.857 173.02C147.893 170.174 143.237 168.469 138.43 167.74C138.432 165.108 138.392 162.468 138.457 159.838C143.356 158.168 147.464 156.012 149.827 151.147C150.464 149.836 150.882 148.428 151.062 146.981C151.439 144.022 151.234 140.886 151.219 137.904L151.131 123.013C153.99 121.812 155.765 120.138 156.952 117.201C158.344 113.758 158.594 109.214 157.074 105.78C156.623 104.761 155.989 103.759 155.104 103.063C152.424 100.955 147.075 99.5381 143.744 98.337C137.29 96.0098 128.822 93.6317 122.253 96.8118C119.217 98.2687 116.897 100.891 115.82 104.083C115.521 104.989 115.236 105.899 114.965 106.814C110.597 107.823 106.864 109.534 104.393 113.502C102.056 117.258 101.754 121.667 102.744 125.902C103.373 128.588 106.496 138.136 107.749 140.212C108.558 141.553 109.64 142.71 110.992 143.51C112.042 144.129 113.176 144.531 114.328 144.905C114.722 152.937 114.608 161.002 114.679 169.043C109.249 167.619 102.978 168.785 98.1591 171.589C93.6648 174.203 90.488 178.673 89.1758 183.683C87.6816 189.386 88.4398 196.348 88.4719 202.215L88.4619 223.003C79.2181 222.703 69.8903 222.931 60.6374 222.882C54.2438 222.848 47.4145 222.352 41.0712 222.983C42.7875 224.281 44.1366 226.004 44.9859 227.982C46.6214 231.772 46.9925 236.598 47.8045 240.666L54.9405 276.671C56.1205 282.348 56.8244 290.188 59.5847 295.216C60.7523 297.343 62.936 298.804 64.9804 300.007C64.0915 300.492 63.5174 300.816 62.9619 301.681C58.3047 298.806 55.9293 294.978 54.7012 289.689C53.5505 284.731 52.7496 279.651 51.7473 274.656C49.6933 264.825 47.6943 254.984 45.7494 245.131C45.2354 242.562 44.6812 239.994 44.225 237.414C43.7415 234.68 43.4805 231.744 42.5193 229.129C41.8661 227.353 40.8579 226.161 39.2756 225.122C36.8843 223.55 34.2877 222.914 31.484 223.597C28.8678 224.235 26.1191 225.799 24.7183 228.17C23.9081 229.541 23.6926 231.421 23.6047 233C23.2954 238.554 23.5584 244.264 23.5603 249.83L23.5605 283.223L23.5197 337.495C23.5191 346.654 23.3751 355.841 23.5469 364.996L92.4791 364.94C101.043 364.94 109.623 365.333 118.18 365.222L137.926 365.273C140.46 365.279 143.646 365.674 146.098 365.21C146.552 365.124 146.352 365.22 146.667 364.748C147.142 365.156 147.124 365.159 147.748 365.157L148.131 364.795L148.22 364.953C149.11 365.62 157.136 365.277 158.674 365.093C158.903 364.363 158.931 363.591 159.002 362.833C158.983 363.62 158.972 364.302 159.167 365.068C161.142 365.398 163.432 365.185 165.442 365.186L178.132 365.194L224.626 365.193L224.597 328.891C224.612 322.592 225.059 316.072 224.596 309.802C224.241 304.992 220.458 300.78 215.825 299.626C213.127 298.953 210.089 299.233 207.321 299.262L191.132 299.388C187.953 299.405 184.284 299.786 181.198 299.096C179.245 298.659 177.418 297.643 175.931 296.313C169.588 290.636 171.236 283.77 170.715 276.244L170.693 275.954C171.378 274.651 172.255 273.612 172.439 272.104L172.448 281.993C172.487 286.78 173.359 291.365 176.994 294.796C180.095 297.724 183.431 297.669 187.405 297.495C186.584 292.936 185.167 288.343 184.058 283.835C181.251 272.426 178.252 261.054 175.893 249.543C184.875 253.19 193.908 256.709 202.99 260.098C204.166 258.961 205.082 257.674 206.038 256.354C206.891 256.569 208.005 256.638 208.524 257.417C209.561 258.974 209.364 260.629 211.495 261.18C212.763 261.507 214.049 261.687 215.329 261.331C216.079 261.933 217.047 262.878 217.952 263.203C219.258 263.672 220.533 263.548 221.801 264.291C223.078 265.039 224.151 267.046 225.751 266.912C227.106 266.799 228.292 266.125 229.415 265.415C230.265 266.678 231.169 267.723 232.72 268.065C237.904 269.21 245.508 260.405 251.024 259.379C254.109 258.806 261.426 259.35 265.097 259.317C279.487 259.187 294.011 258.75 308.386 259.224C307.796 263.215 306.076 267.531 308.663 271.169C309.005 271.649 309.383 272.104 309.758 272.557C310.092 275.319 310.612 278.054 310.903 280.821C310.655 298.744 309.967 316.726 309.405 334.644C309.082 344.981 308.482 355.539 308.879 365.871L323.56 365.894C325.981 365.899 328.759 366.201 331.124 365.753L331.42 365.26L331.75 365.694C332.317 365.753 332.293 365.741 332.76 365.407L332.859 364.748L333.091 365.818C335.772 366.449 345.951 365.967 349.341 365.955L388.68 365.904C391.742 365.902 407.879 366.279 409.267 365.702C409.568 365.95 409.777 366.054 410.17 366.093C414.837 366.545 419.882 366.179 424.583 366.172C430.45 366.164 436.596 366.494 442.425 366.032C442.849 365.998 443.086 365.908 443.435 365.67L443.547 365.66C444.074 365.867 443.881 365.85 444.396 365.853C445.505 365.86 446.415 365.666 447.321 366.383C447.365 366.962 447.35 367.02 447.071 367.529C446.793 367.644 446.54 367.749 446.237 367.778C444.125 367.979 441.666 367.688 439.52 367.672L424.264 367.656C408.222 367.833 392.18 367.908 376.137 367.881L121.473 367.557L47.6603 367.591C43.2705 367.585 23.5344 368.099 20.6033 367.169C19.7061 366.215 19.7068 363.623 19.6919 362.322C19.351 332.506 19.6747 302.667 19.683 272.848L19.7303 245.645C19.7251 241.209 19.2458 236.213 19.8675 231.851C20.2557 229.128 21.251 226.901 23.208 224.941C27.0344 221.111 31.487 220.53 36.6296 220.538Z" fill="#008D51"/>
<path d="M197.715 175.517L197.719 75.0073L256.514 75.0029C256.347 85.3823 256.522 95.7857 256.504 106.167C256.351 129.251 256.39 152.336 256.619 175.42C250.14 175.632 243.608 175.414 237.121 175.423L197.715 175.517Z" fill="#008D51"/>
<path d="M322.894 106.933C322.127 106.67 321.318 106.415 320.611 106.013C319.711 105.502 316.842 103.089 316.069 103.154C315.842 103.173 315.389 103.352 315.175 103.469C313.526 104.375 312.841 107.2 312.483 108.925C311.327 114.497 312.037 121.049 315.276 125.837C317.353 128.907 320.234 130.94 323.833 131.851C322.879 134.44 323.042 147.798 323.133 151.115C322.942 153.62 323.088 156.247 323.079 158.764C323.091 164.346 323.05 169.927 322.954 175.508L263.717 175.516C263.471 142.051 263.449 108.585 263.652 75.1194C283.349 74.8958 303.147 74.8842 322.844 75.1323C322.689 85.7223 322.867 96.3401 322.894 106.933Z" fill="#008D51"/>
<path d="M329.85 106.241C337.318 103.683 346.665 100.702 354.255 104.435C358.62 106.58 360.755 110.407 362.346 114.797C365.904 115.608 368.759 117.527 370.703 120.675C373.393 125.029 373.112 130.286 371.87 135.066C370.686 139.623 367.549 148.322 363.37 150.756C362.969 150.986 362.56 151.202 362.144 151.405C361.91 159.177 361.272 166.946 360.819 174.708C368.097 174.886 374.347 177.882 379.359 183.158C381.304 185.205 382.98 187.556 384.155 190.131C385.805 193.748 386.614 197.798 387.578 201.645C389.447 209.106 391.039 216.623 392.833 224.1C394.77 232.192 396.654 240.295 398.485 248.411C400.437 248.095 402.145 247.733 404.1 248.217L404.387 248.544C404.035 249.1 403.265 249.333 402.655 249.492C401.44 249.811 400.046 249.865 398.791 249.984C399.484 253.385 400.702 257.182 400.415 260.647C399.975 261.78 399.724 262.962 399.443 264.142C401.14 267.838 403.166 271.369 404.869 275.061C408.54 283.021 411.463 291.097 414.035 299.466C414.833 302.062 416.044 305.248 416.141 307.936C417.111 312.642 418.362 317.303 419.43 321.989C419.786 323.552 419.84 325.678 420.509 327.074C420.007 320.198 419.017 313.389 418.268 306.534C417.856 300.853 417.296 295.185 416.986 289.497C416.334 277.544 416.176 265.384 416.37 253.415C416.684 240.684 417.418 227.966 418.571 215.282C419.121 208.156 419.781 201.043 420.176 193.906C417.497 191.766 409.841 186.168 408.344 183.346L408.592 183.017C409.273 183.108 409.922 183.304 410.501 183.689C411.61 184.428 412.599 185.509 413.617 186.384C415.828 188.286 418.108 190.114 420.343 191.988C420.942 183.631 421.449 175.266 421.865 166.897C422.003 164.361 421.865 159.023 422.491 156.761C422.628 156.267 422.739 156.213 423.146 155.959L423.522 156.177C424.682 158.954 423.209 170.504 423.074 174.23C425.174 172.858 434.118 165.533 435.929 165.791L436.044 166.175C435.135 168.09 432.005 169.718 430.367 171.117L430.2 171.261C427.811 172.95 425.466 174.717 423.052 176.367C422.895 182.433 422.081 188.461 421.818 194.518C426.673 193.283 431.502 191.946 436.301 190.508C438.527 189.829 440.732 188.821 442.978 188.27C443.543 188.131 444.005 188.055 444.571 188.233L444.87 188.84C444.696 189.329 444.698 189.293 444.253 189.505C442.545 190.319 440.486 190.808 438.684 191.405C433.039 193.277 427.518 195.041 421.653 196.108L420.299 214.15C419.687 222.669 418.877 231.171 418.469 239.703C418.027 248.953 418.098 258.205 418.181 267.461C418.289 279.637 418.55 292.096 419.842 304.207C420.463 311.682 421.436 318.987 422.726 326.378L422.946 326.226C422.627 317.973 422.883 309.758 423.036 301.506C423.513 279.227 427.537 256.375 437.661 236.353C438.672 234.912 439.47 233.183 440.366 231.657C441.783 229.242 443.313 226.924 444.903 224.621C442.903 218.905 441.459 212.334 441.957 206.25L442.633 205.845C443.494 207.267 444.79 219.477 446.052 223.116C448.837 219.36 463.698 202.139 467.561 201.279L468.119 201.552C468.138 202.357 467.832 202.74 467.285 203.319C465.853 204.837 463.984 205.839 462.493 207.284C464.334 207.496 471.1 207.857 472.201 209.167C472.388 209.39 472.485 209.596 472.62 209.846L472.419 210.248C470.132 210.972 463.746 209.154 461.194 208.582C452.352 216.571 445.021 226.764 439.201 237.115C432.624 248.955 428.115 267.071 426.298 280.415C425.443 286.698 425.058 293.083 424.887 299.42C424.349 302.439 424.548 305.922 424.519 309.014C424.505 313.353 424.42 317.691 424.264 322.027C425.462 317.062 426.94 311.926 428.805 307.166C430.017 304.071 431.513 301.07 432.801 298.001C435.101 294.128 445.72 279.28 449.522 277.602L450.087 277.678C450.251 278.001 450.441 278.165 450.333 278.541C449.988 279.752 446.536 282.843 445.492 284.034C441.402 288.699 437.858 293.692 434.468 298.882C429.055 308.445 426.434 319.341 424.547 330.076C430.468 330.108 436.388 330.107 442.309 330.072C444.943 330.064 447.972 329.768 450.554 330.108C451.405 330.22 452.185 330.626 452.797 331.225C453.591 332.002 454.001 333.03 453.982 334.137C453.964 335.1 453.641 335.979 452.933 336.647C452.14 337.396 451.002 337.7 449.945 337.815C447.872 338.042 445.634 337.843 443.548 337.808C440.649 337.775 437.75 337.778 434.85 337.817C428.326 337.883 421.8 337.903 415.275 337.875C412.082 337.876 408.758 338.064 405.579 337.831C404.11 337.724 402.435 337.388 401.421 336.218C400.773 335.471 400.584 334.522 400.697 333.556C400.823 332.475 401.357 331.541 402.259 330.925C404.694 329.262 415.69 330.075 419.065 330.114C417.942 323.13 416.037 316.381 414.749 309.457C412.116 298.494 408.714 287.395 404.044 277.116C402.393 273.483 400.451 270.006 398.6 266.475L388.204 293.201C386.731 297.028 385.476 301.052 383.847 304.797C383.537 305.51 383.108 306.109 382.622 306.71C379.787 310.214 382.435 318.546 374.994 323.349C372.415 323.268 368.776 324.297 366.621 323.932C366.499 323.91 366.376 323.894 366.255 323.871C366.181 323.857 366.109 323.838 366.037 323.821C364.123 322.822 362.692 323.647 360.772 323.155C359.373 322.795 358.821 321.516 357.644 320.951C356.607 320.454 354.792 321.113 352.84 320.11C351.861 319.606 350.809 318.919 350.49 317.794C349.676 314.931 352.652 312.197 353.959 309.943C353.69 309.391 353.392 308.839 353.384 308.209C353.365 306.806 355.21 302.498 355.715 300.903C355.217 300.602 354.853 300.337 354.459 299.907C354.742 297.56 359.903 284.379 361.024 281.218C361.977 278.649 362.678 275.916 363.481 273.291C350.971 272.776 338.3 273.128 325.777 273.111C321.176 273.105 315.906 273.539 311.394 273.03C310.819 272.965 310.288 272.782 309.758 272.557C309.383 272.104 309.005 271.649 308.663 271.169C306.077 267.531 307.796 263.215 308.387 259.224C294.011 258.75 279.487 259.186 265.097 259.317C261.427 259.35 254.11 258.806 251.024 259.379C245.509 260.405 237.904 269.21 232.721 268.065C231.17 267.723 230.265 266.678 229.415 265.414C228.292 266.125 227.106 266.799 225.751 266.912C224.151 267.046 223.078 265.039 221.801 264.291C220.533 263.548 219.259 263.672 217.952 263.203C217.047 262.878 216.079 261.933 215.329 261.331C214.049 261.687 212.763 261.507 211.495 261.179C209.364 260.629 209.561 258.974 208.524 257.417C208.005 256.638 206.891 256.569 206.038 256.353C205.083 257.674 204.167 258.96 202.991 260.098C193.908 256.709 184.875 253.19 175.893 249.543C174.35 248.887 172.811 248.361 171.205 247.88C172.713 255.984 173.137 263.886 172.439 272.104C172.255 273.612 171.379 274.651 170.693 275.954C168.042 279.01 166.078 280.952 162.15 282.234C161.411 291.655 161.327 301.153 160.863 310.596L160.761 312.962C160.668 322.49 159.802 331.996 159.725 341.525C159.682 342.428 159.688 343.363 159.584 344.259C159.4 350.439 159.057 356.654 159.003 362.832C158.932 363.591 158.903 364.363 158.674 365.093C157.137 365.276 149.11 365.62 148.22 364.953L148.132 364.795C148.442 361.071 148.408 357.254 148.523 353.516L149.165 327.726L149.882 302.876C150.012 298.733 150.325 294.52 150.271 290.379C150.252 288.964 150.225 287.3 149.629 286.003C148.992 286.837 148.963 288.564 148.883 289.609C148.359 296.42 148.479 303.426 148.274 310.268C147.871 328.432 147.335 346.592 146.668 364.748C146.352 365.22 146.552 365.124 146.098 365.21C143.646 365.674 140.46 365.279 137.926 365.273L118.181 365.222L118.769 362.662C113.405 360.937 107.559 359.944 102.055 358.652L69.7076 350.99C64.6742 349.793 59.095 349.027 54.2696 347.211C53.7339 347.01 53.423 346.795 53.0459 346.371C52.599 344.637 61.8865 306.428 62.9623 301.68C63.5177 300.816 64.0919 300.492 64.9807 300.007C65.8912 300.221 66.8161 300.41 67.718 300.657C68.9946 300.941 70.2841 301.285 71.5809 301.455C75.4011 302.171 79.2064 302.962 82.9954 303.828C83.1717 302.307 83.4221 300.974 83.9083 299.518L85.0648 297.459C86.955 295.657 88.48 294.646 91.0553 294.096L91.0601 286.356C90.3476 286.291 89.7181 286.195 89.0253 286.017C88.4877 285.451 88.5141 285.375 88.442 284.602C88.2349 282.384 88.3988 280.03 88.4026 277.796L88.4218 265.053L88.4622 223.003L88.4723 202.215C88.4401 196.348 87.6819 189.386 89.1762 183.683C90.4883 178.673 93.6652 174.203 98.1595 171.589C102.979 168.785 109.25 167.619 114.679 169.043C114.608 161.002 114.722 152.937 114.329 144.905C113.177 144.531 112.042 144.129 110.993 143.509C109.64 142.71 108.558 141.553 107.749 140.212C106.496 138.135 103.374 128.588 102.745 125.902C101.754 121.667 102.056 117.257 104.394 113.502C106.864 109.534 110.597 107.823 114.966 106.814C115.237 105.899 115.522 104.989 115.821 104.083C116.898 100.891 119.217 98.2686 122.254 96.8117C128.823 93.6316 137.291 96.0097 143.744 98.3369C147.075 99.538 152.424 100.955 155.104 103.063C155.989 103.759 156.623 104.761 157.075 105.78C158.595 109.213 158.344 113.758 156.952 117.201C155.765 120.138 153.99 121.812 151.131 123.013L151.22 137.904C151.234 140.886 151.44 144.022 151.062 146.98C150.882 148.428 150.465 149.836 149.827 151.147C147.464 156.012 143.357 158.168 138.457 159.837C138.393 162.468 138.432 165.108 138.43 167.74C143.238 168.469 147.894 170.174 151.858 173.02C154.847 175.148 157.26 177.986 158.879 181.281C162.272 188.121 164.56 206.149 165.898 214.244C179.329 218.334 192.619 222.909 206.018 227.108C212.888 229.261 220.129 231.957 227.255 232.966L227.425 232.799C235.307 225.217 243.237 231.855 252.092 232.068C255.034 229.233 255.726 231.707 258.079 230.609C258.187 230.088 258.23 229.883 258.541 229.435C263.372 229.128 268.325 229.345 273.167 229.363L299.203 229.475C301.867 225.767 303.846 221.162 305.918 217.084C309.103 210.818 312.462 204.649 315.661 198.391C318.339 193.155 320.881 187.43 324.208 182.599C326.06 180.433 327.723 179.009 330.161 177.506C332.856 176.208 335.3 175.573 338.243 175.006C338.292 171.706 338.318 168.406 338.322 165.106C335.149 164.347 332.786 162.993 330.182 161.048C326.944 157.983 324.843 154.85 324.4 150.3C324.34 147.957 324.377 132.661 323.833 131.851C320.234 130.94 317.354 128.907 315.277 125.837C312.037 121.049 311.327 114.497 312.483 108.925C312.841 107.2 313.527 104.374 315.176 103.469C315.389 103.352 315.842 103.173 316.069 103.154C316.843 103.089 319.712 105.502 320.612 106.013C321.318 106.415 322.127 106.67 322.894 106.933C325.309 107.148 327.525 106.984 329.85 106.241ZM120.626 113.987C119.775 114.891 119.634 115.683 119.648 116.908C119.705 121.959 121.054 125.137 119.269 130.357C119.015 131.101 118.689 132.193 118.168 132.779C117.893 133.088 117.856 133.096 117.562 133.313C115.555 133.111 112.839 128.036 109.663 130.665C108.69 131.47 107.743 133.18 107.614 134.427C107.425 136.257 108.777 138.914 109.926 140.251C111.509 142.092 113.395 142.837 115.626 143.559C116.473 148.294 118.785 151.496 122.683 154.247C125.664 156.381 129.094 157.803 132.711 158.404C137.293 158.641 141.613 157.848 145.101 154.645C148.041 151.945 149.392 148.305 149.486 144.386C149.652 137.408 149.48 130.33 149.275 123.353C144.839 123.232 140.374 123.012 136.192 121.364C130.94 119.293 126.504 113.714 120.626 113.987ZM347.801 121.929C343.964 122.942 340.412 124.902 336.819 126.55C333.224 128.157 329.617 129.74 325.999 131.298C326.042 136.147 325.44 148.438 326.626 152.463C327.352 154.927 328.915 157.192 330.734 158.981C333.436 161.64 336.684 163.361 340.555 163.287C345.118 163.2 349.381 161.651 352.569 158.284C353.541 157.259 354.323 155.385 355.46 154.657C355.941 154.797 356.082 154.977 356.387 155.365C356.477 156.324 355.978 156.992 355.393 157.706C352.278 161.507 347.657 164.454 342.702 164.911C341.834 164.991 340.957 165.017 340.086 165.045C340.069 168.919 340.03 172.793 339.968 176.667C334.652 177.242 329.881 178.405 326.347 182.758C322.6 187.371 319.961 193.881 317.215 199.223L306.036 220.558C304.482 223.509 302.982 227.272 300.932 229.875C300.288 230.692 299.819 231.026 298.776 231.143C294.751 231.599 290.334 231.219 286.256 231.193C277.56 231.137 268.844 231.015 260.15 231.177C260.073 239.902 259.667 248.8 260.126 257.511C276.408 257.779 292.749 257.532 309.036 257.467L322.207 204.831C322.699 202.839 325.462 190.573 325.873 189.874C325.991 189.674 326.179 189.527 326.332 189.354L326.936 189.239C327.372 189.684 327.376 189.768 327.366 190.423C327.34 192.045 326.61 193.778 326.236 195.352C325.231 199.571 324.286 203.78 323.174 207.976C319.853 220.506 316.9 233.123 313.758 245.697L310.917 257.105C310.187 259.998 309.253 262.97 309.009 265.953C308.887 267.445 308.864 268.992 309.892 270.194C310.519 270.926 311.436 271.283 312.383 271.348C313.803 271.446 315.311 271.326 316.74 271.32C326.755 271.366 336.769 271.347 346.783 271.263C352.7 271.234 358.763 270.982 364.66 271.411C366.274 266.868 367.948 262.398 368.046 257.515C368.092 255.68 367.894 253.848 367.458 252.066C366.509 248.205 364.813 244.41 363.397 240.699C360.748 233.904 358.17 227.082 355.663 220.234C355.217 218.988 353.619 215.885 354.551 214.899L355.115 214.892C356.202 216.163 368.198 248.142 369.102 251.655C369.721 254.066 369.823 256.731 369.618 259.203C369.14 264.962 366.742 270.474 364.832 275.874C362.069 283.683 359.09 291.404 356.364 299.227C364.615 302.44 372.432 306.222 381.52 306.018C385.89 294.379 390.571 282.865 394.918 271.219C396.12 267.996 398.127 264.361 398.61 260.964C398.816 259.505 398.65 257.838 398.413 256.388C397.127 248.513 394.891 240.729 393.176 232.935C391.069 223.125 388.777 213.355 386.302 203.631C385.258 199.532 384.461 194.884 382.706 191.04C379.884 184.856 374.135 179.721 367.763 177.427C366.187 176.859 364.434 176.38 362.757 176.269C361.924 176.214 360.939 176.355 360.14 176.15C359.61 176.014 359.532 175.869 359.238 175.448C358.836 172.831 359.324 169.826 359.497 167.187C359.872 161.461 360.396 155.704 360.469 149.965C363.029 149.094 364.823 148.214 366.119 145.667C366.779 144.37 366.731 142.72 366.248 141.375C365.662 139.745 364.427 138.582 362.874 137.862C361.736 137.335 360.434 136.947 359.211 137.4C356.699 138.331 357.069 141.644 355.499 143.207C354.995 142.803 355.007 142.302 354.934 141.671C354.63 139.055 354.981 136.228 355.134 133.601C353.089 131.835 351.543 130.255 350.229 127.883C349.424 126.432 348.982 122.692 347.801 121.929ZM116.157 150.646L116.247 170.729C120.214 174.115 124.232 177.44 128.3 180.704C131.265 183.074 134.359 185.347 137.231 187.825C137.739 185.989 138.201 184.14 138.618 182.281C139.516 178.263 140.295 174.173 141.409 170.212C140.612 170.038 139.424 169.561 138.69 169.886C138.586 170.664 138.669 171.266 138.109 171.834L137.288 172.056C136.401 170.308 136.839 162.766 136.777 160.355C130.51 160.346 123.742 158.304 119.134 153.857C118.124 152.882 117.286 151.438 116.157 150.646ZM107.651 170.296C102.363 170.947 97.4926 173.055 94.1269 177.324C91.9312 180.109 90.8174 183.137 90.3485 186.637C89.8335 190.481 90.0919 194.56 90.1035 198.437L90.0785 216.404L90.0026 284.488L111.302 284.398C111.712 276.301 111.507 268.112 111.509 260.001L111.493 219.435L111.463 204.266C111.457 202.045 111.26 199.674 111.444 197.468C111.503 196.772 111.663 196.453 112.118 195.941C112.562 196.031 112.526 195.923 112.734 196.265C113.04 196.767 113.087 197.273 113.11 197.849C113.344 203.645 113.081 209.552 113.088 215.362L113.127 252.548L113.154 280.571L146.942 280.553C150.98 280.557 157.81 281.081 161.518 280.441C163.656 280.072 165.542 278.807 167.044 277.292C171.025 273.278 171.283 268.889 171.231 263.487C171.164 256.464 169.781 249.511 168.692 242.593C167.09 231.904 165.315 221.241 163.366 210.611C162.035 202.951 160.929 192.207 158.598 185.055C157.547 181.834 155.88 179.02 153.455 176.64C150.507 173.747 146.969 172.101 143.118 170.731C142.181 174.472 141.29 178.223 140.445 181.985C139.799 184.808 139.278 187.827 138.218 190.519C134.114 187.85 130.348 184.524 126.585 181.402C122.071 177.66 117.533 173.948 112.969 170.267C111.18 170.193 109.437 170.142 107.651 170.296ZM166.115 215.926C167.984 225.942 169.453 236.086 170.941 246.168C175.574 247.41 180.127 249.423 184.607 251.131C190.612 253.421 196.725 255.594 202.647 258.087C205.303 254.737 208.111 251.457 210.64 248.013C214.099 243.311 218.067 238.565 220.959 233.516L187.497 223.055C180.351 220.795 173.103 218.636 166.115 215.926ZM235.237 230.835C231.934 231.558 229.974 232.842 227.399 234.959C225.891 234.542 224.396 234.261 222.853 234.01C219.341 239.254 215.658 244.381 211.81 249.382C211.058 250.36 207.969 253.84 207.846 254.856C208.218 255.357 208.345 255.307 208.961 255.458C212.078 254.551 217.116 247.419 219.439 247.469C219.842 247.919 219.829 247.957 219.884 248.565C218.373 251.375 210.125 255.517 210.864 258.546C211.79 259.558 212.984 259.665 214.279 259.867C216.38 257.493 223.77 250.561 226.397 249.434L226.888 249.529C226.994 250.362 226.712 250.909 226.194 251.558C224.826 253.276 217.093 258.225 217.249 259.817C217.321 260.545 217.851 261.146 218.436 261.547C219.08 261.988 219.775 262.112 220.541 261.951C221.377 261.776 222.015 261.168 222.617 260.605C224.785 258.626 229.634 253.506 232.299 252.721C232.744 253.146 232.71 253.138 232.757 253.757C231.292 256.811 222.543 260.553 223.616 263.841C224.237 264.47 224.791 264.9 225.731 264.885C228.434 264.841 232.605 259.898 234.501 258.038C234.952 257.596 235.432 256.865 236.027 256.631C236.319 256.517 236.508 256.687 236.775 256.799C237.102 257.349 237.148 257.438 237.145 258.074C235.888 259.704 230.54 262.814 230.983 264.949C231.104 265.53 231.483 265.91 231.994 266.171C233.009 266.687 234.555 266.542 235.568 266.102C241.338 263.594 245.992 258.879 251.931 256.609C252.619 254.415 252.071 237.854 252.062 234.037C250.031 233.769 248.015 233.401 246.019 232.937C242.796 232.189 238.528 230.359 235.237 230.835ZM253.967 232.507C253.661 236.107 253.787 239.805 253.785 243.419C253.782 248.092 253.719 252.8 253.907 257.469C255.321 257.512 256.73 257.575 258.143 257.474C258.366 249.152 258.086 240.814 258.277 232.487C256.84 232.468 255.403 232.43 253.967 232.507ZM92.7691 286.152C92.7571 289.568 93.3212 295.671 92.5371 298.754C92.0431 300.697 89.9228 301.836 90.4537 303.781C91.5627 304.762 101.98 306.57 103.651 306.459C105.254 306.353 106.375 305.632 107.638 304.699C108.066 303.486 108.371 301.729 109.213 300.79L109.691 300.698L110.284 301.263C112.034 298.794 111.254 289.584 111.208 286.186C105.098 285.93 98.8836 285.996 92.7691 286.152ZM90.3994 295.872C88.1999 296.659 86.9098 297.79 85.9061 299.927C85.3031 301.211 84.9577 302.601 84.6324 303.974L87.3163 304.529L88.6111 304.685C89.2751 303.261 87.742 301.538 88.7154 299.976L89.0325 299.898C89.685 299.73 90.4412 299.632 90.8213 299.011C91.3268 298.185 91.1792 297.083 91.0442 296.169C90.8338 296.062 90.6277 295.935 90.3994 295.872ZM357.517 301.61C356.626 303.997 355.685 306.375 354.983 308.825C356.238 307.655 357.321 306.271 359.131 306.129C359.232 309.014 349.306 315.218 352.839 318.174C353.941 319.096 355.458 319.387 356.835 319.11C357.414 318.99 357.991 318.856 358.564 318.708C359.038 319.744 359.395 320.771 360.518 321.245C361.725 321.754 363.415 321.442 364.693 321.347L365.114 321.09L365.024 321.595C366.115 322.182 366.948 322.56 368.184 322.665C369.079 322.247 369.968 321.839 370.826 321.346C372.185 321.802 373.199 322.115 374.526 321.405C377.112 320.022 378.352 316.873 379.086 314.181C379.496 312.681 380.228 309.633 379.595 308.2C379.477 307.932 379.437 307.918 379.259 307.737C370.43 306.721 365.676 304.834 357.517 301.61ZM64.7765 301.937C62.8407 309.519 60.5234 317.253 59.1325 324.954C74.3965 328.319 89.6235 331.853 104.81 335.554C111.384 337.104 118.164 339.434 124.861 340.325C125.994 337.661 130.07 319.883 129.967 317.388C128.911 316.018 98.2984 308.69 94.4075 307.83C87.3134 306.224 80.1856 304.771 73.0295 303.47C70.2856 302.957 67.5426 302.307 64.7765 301.937ZM110.197 303.522C109.302 305.587 109.457 307.713 109.474 309.915L112.859 310.493C113.276 309.653 112.955 308.545 112.651 307.675C112.123 306.16 111.243 304.735 110.197 303.522ZM107.391 307.083C106.028 307.758 104.834 307.987 103.338 308.197C103.576 308.312 103.804 308.441 104.061 308.508C105.09 308.772 106.305 309.311 107.335 309.064C107.69 308.47 107.587 307.938 107.536 307.28L107.391 307.083ZM58.7572 326.623C57.5435 333.052 55.7994 339.323 54.4133 345.708C64.728 348.495 75.2344 350.734 85.6447 353.152C96.9703 355.782 108.26 358.58 119.638 360.971L121.601 353.21C122.489 349.473 123.346 345.728 124.169 341.975C121.58 341.315 118.996 340.638 116.381 340.092C115.838 342.374 115.435 345.829 114.036 347.708C113.133 347.886 65.0057 336.147 61.4267 334.751C61.7308 332.229 62.2555 329.739 62.7393 327.247C61.4195 327.029 60.0876 326.758 58.7572 326.623ZM64.3489 327.755C63.9395 329.74 63.5571 331.735 63.0545 333.698C75.5102 336.893 88.0192 339.811 100.509 342.859C103.002 343.468 111.311 346.005 113.141 345.891C113.753 343.905 114.288 341.895 114.748 339.868C104.984 337.106 94.9601 334.943 85.0792 332.624C78.2013 331.01 71.2749 329.102 64.3489 327.755ZM403.698 331.803C403.054 332.382 402.528 332.924 402.453 333.832C402.41 334.366 402.463 334.757 402.812 335.192C403.218 335.698 403.851 335.863 404.462 335.936C409.523 336.536 416.165 336.111 421.368 336.12C431.132 336.136 440.967 336.349 450.725 336.072L451.116 336.057C451.829 335.391 452.258 334.81 452.278 333.794C452.29 333.228 452.068 332.696 451.623 332.346C450.978 331.84 449.974 331.845 449.192 331.8C441.45 331.348 433.491 331.728 425.729 331.733C418.434 331.739 410.968 331.365 403.698 331.803Z" fill="black"/>
<path d="M115.625 143.559C113.394 142.837 111.507 142.092 109.925 140.251C108.775 138.914 107.423 136.257 107.613 134.427C107.741 133.18 108.689 131.47 109.661 130.665C112.837 128.036 115.554 133.111 117.56 133.313C117.855 133.095 117.891 133.088 118.166 132.779C118.687 132.193 119.013 131.101 119.268 130.357C121.052 125.137 119.704 121.959 119.646 116.908C119.632 115.683 119.774 114.891 120.624 113.987C126.502 113.714 130.939 119.293 136.19 121.364C140.372 123.012 144.837 123.232 149.274 123.353C149.479 130.33 149.651 137.408 149.484 144.385C149.391 148.305 148.039 151.945 145.099 154.645C141.612 157.848 137.292 158.641 132.709 158.404C129.093 157.803 125.663 156.381 122.681 154.247C118.783 151.496 116.471 148.294 115.625 143.559ZM143.359 125.568C142.473 125.66 141.84 125.654 141.171 126.285L140.982 126.791C141.266 127.276 141.383 127.444 141.985 127.586C142.379 127.678 142.929 127.611 143.338 127.597C144.273 127.449 144.618 127.479 145.354 126.853L145.48 126.326C145.113 125.855 145.003 125.711 144.381 125.581C144.087 125.52 143.649 125.562 143.359 125.568ZM128.493 126.09C127.828 126.173 127.564 126.103 127.079 126.587L127.017 127.315C127.405 127.773 127.64 127.919 128.257 127.967C129.219 128.041 130.26 127.935 131.228 127.898C131.777 127.747 132.129 127.735 132.421 127.184C132.497 127.042 132.52 126.823 132.545 126.664C132.129 126.142 131.845 126.05 131.172 126.003C130.303 125.944 129.366 126.046 128.493 126.09ZM134.478 132.071C134.512 133.808 133.966 138.446 135.036 139.813C135.367 140.237 135.781 140.4 136.307 140.368C136.707 140.344 137.19 140.153 137.578 140.037C137.6 139.354 137.676 139.265 137.266 138.733C136.894 138.584 136.514 138.571 136.353 138.173C135.606 136.318 137.072 133.974 135.809 132.315C135.348 132.172 134.96 132.1 134.478 132.071ZM143.255 132.596C142.612 132.617 142.032 132.99 141.747 133.567C141.463 134.144 141.519 134.832 141.895 135.354C142.269 135.877 142.902 136.151 143.54 136.066C144.459 135.943 145.121 135.121 145.045 134.196C144.969 133.27 144.182 132.568 143.255 132.596ZM126.19 132.83C125.575 132.97 125.082 133.43 124.901 134.034C124.719 134.638 124.877 135.294 125.313 135.75C125.749 136.205 126.397 136.391 127.008 136.236C127.936 135.999 128.502 135.061 128.279 134.129C128.055 133.197 127.124 132.618 126.19 132.83ZM128.691 144.592L127.508 144.837C126.975 145.762 127.083 146.482 127.377 147.485C128.053 149.789 129.64 152.145 131.818 153.253C133.464 154.089 135.261 154.225 137.004 153.609C138.211 153.182 139.265 152.524 140.204 151.655C141.685 149.679 142.08 146.781 143.867 145.6C144.025 144.997 143.993 145.124 143.767 144.615C141.227 144.071 131.822 144.47 128.691 144.592Z" fill="#FEFEFE"/>
<path d="M325.998 131.298C329.615 129.74 333.222 128.156 336.818 126.55C340.41 124.902 343.963 122.942 347.799 121.928C348.98 122.692 349.423 126.432 350.227 127.883C351.541 130.255 353.088 131.835 355.132 133.601C354.979 136.227 354.629 139.055 354.932 141.671C355.005 142.302 354.994 142.803 355.497 143.206C357.067 141.644 356.697 138.331 359.21 137.4C360.433 136.947 361.735 137.335 362.873 137.862C364.425 138.582 365.661 139.745 366.247 141.375C366.73 142.719 366.777 144.37 366.117 145.667C364.821 148.214 363.028 149.094 360.467 149.965C360.395 155.704 359.87 161.461 359.496 167.187C359.323 169.826 358.834 172.831 359.237 175.448C359.531 175.869 359.608 176.013 360.138 176.15C360.938 176.355 361.922 176.213 362.755 176.269C364.432 176.38 366.186 176.859 367.762 177.427C374.134 179.721 379.882 184.856 382.705 191.039C384.46 194.884 385.257 199.532 386.3 203.631C388.775 213.355 391.068 223.125 393.175 232.935C394.89 240.729 397.126 248.513 398.412 256.388C398.648 257.838 398.815 259.505 398.608 260.964C398.126 264.361 396.119 267.996 394.916 271.219C390.57 282.865 385.888 294.379 381.519 306.018C372.43 306.222 364.613 302.44 356.362 299.227C359.088 291.404 362.068 283.682 364.831 275.874C366.741 270.474 369.138 264.962 369.616 259.203C369.821 256.731 369.72 254.066 369.1 251.655C368.197 248.142 356.2 216.162 355.113 214.892L354.549 214.899C353.618 215.885 355.215 218.988 355.661 220.234C358.169 227.082 360.747 233.904 363.396 240.699C364.812 244.41 366.507 248.205 367.457 252.065C367.893 253.848 368.091 255.68 368.045 257.515C367.946 262.398 366.273 266.868 364.659 271.411C358.761 270.982 352.698 271.234 346.781 271.263C336.767 271.347 326.753 271.366 316.739 271.32C315.31 271.325 313.801 271.446 312.381 271.348C311.434 271.283 310.517 270.926 309.891 270.194C308.862 268.992 308.885 267.445 309.007 265.953C309.252 262.97 310.186 259.998 310.915 257.104L313.756 245.697C316.899 233.123 319.851 220.506 323.172 207.976C324.284 203.78 325.23 199.571 326.234 195.352C326.609 193.778 327.339 192.045 327.364 190.423C327.374 189.768 327.37 189.684 326.935 189.239L326.331 189.354C326.177 189.527 325.989 189.674 325.872 189.873C325.461 190.573 322.698 202.839 322.205 204.831L309.034 257.466C292.747 257.532 276.406 257.779 260.125 257.511C259.665 248.8 260.072 239.902 260.149 231.176C268.842 231.014 277.559 231.137 286.254 231.193C290.332 231.219 294.749 231.599 298.775 231.143C299.818 231.025 300.287 230.692 300.93 229.875C302.981 227.272 304.481 223.509 306.035 220.558L317.213 199.222C319.96 193.881 322.599 187.371 326.345 182.758C329.88 178.405 334.651 177.242 339.967 176.666C340.029 172.793 340.068 168.919 340.084 165.045C340.956 165.017 341.833 164.991 342.701 164.911C347.656 164.454 352.277 161.507 355.392 157.706C355.976 156.992 356.475 156.324 356.386 155.365C356.08 154.977 355.94 154.797 355.458 154.657C354.321 155.385 353.539 157.259 352.568 158.284C349.38 161.651 345.117 163.2 340.554 163.287C336.682 163.361 333.435 161.639 330.733 158.981C328.914 157.191 327.351 154.927 326.625 152.463C325.439 148.438 326.041 136.147 325.998 131.298ZM331.649 132.52C330.579 132.706 329.689 132.846 328.728 133.393L328.568 133.782C329.033 134.184 329.567 134.328 330.174 134.315C331.029 134.296 331.942 134.097 332.787 133.962C333.856 133.902 334.772 133.884 335.768 133.441L335.897 133.072C334.712 132.132 333.053 132.421 331.649 132.52ZM335.268 138.819L334.085 141.628C333.447 141.991 332.842 142.26 332.455 142.912C332.521 143.272 332.453 143.363 332.769 143.593C333.088 143.825 333.349 143.906 333.721 144.013C334.747 143.285 336.056 141.993 336.318 140.707C336.434 140.136 336.466 139.791 336.17 139.285L335.268 138.819ZM344.283 138.851C343.783 139.739 343.347 140.734 343.595 141.781C343.723 142.324 343.98 142.861 344.481 143.157C344.912 143.412 345.494 143.39 345.98 143.406C346.452 142.344 346.923 141.059 346.363 139.923C346.117 139.423 345.653 139.01 345.099 138.897C344.839 138.844 344.547 138.853 344.283 138.851ZM336.15 144.183C335.824 144.845 335.684 145.024 335.74 145.778C336.407 146.372 337.243 146.437 338.121 146.537C338.445 145.956 338.533 145.835 338.518 145.18C337.826 144.378 337.161 144.299 336.15 144.183ZM336.368 152.059L335.265 152.234C334.893 152.85 334.822 153.322 334.987 154.034C335.353 155.607 336.532 157.068 337.899 157.894C339.122 158.642 340.595 158.861 341.983 158.503C343.015 158.231 343.9 157.727 344.799 157.17C346.48 155.665 347.459 154.163 348.36 152.087C344.406 151.754 340.333 151.943 336.368 152.059ZM340.289 178.787C338.46 180.467 334.943 182.934 334.897 185.646C334.869 187.401 336.06 188.888 337.104 190.194C334.572 200.026 332.636 209.994 330.369 219.885C328.059 229.955 325.402 240.012 323.274 250.114C324.622 252.463 326.049 254.766 327.553 257.019L328.977 259.125C331.452 256.671 334.006 254.264 336.25 251.595C337.296 243.956 337.455 236.021 337.963 228.326C338.927 215.638 339.682 202.936 340.226 190.223C341.368 189.164 343.978 187.309 344.184 185.68C344.394 184.01 342.119 180.648 340.998 179.366C340.786 179.123 340.568 178.938 340.289 178.787Z" fill="#FEFEFE"/>
<path d="M143.338 127.597C142.929 127.611 142.379 127.678 141.985 127.586C141.383 127.444 141.265 127.276 140.981 126.791L141.171 126.285C141.84 125.654 142.473 125.66 143.359 125.568C143.649 125.562 144.087 125.52 144.381 125.581C145.002 125.711 145.113 125.855 145.48 126.326L145.354 126.853C144.618 127.479 144.273 127.449 143.338 127.597Z" fill="black"/>
<path d="M131.229 127.898C130.262 127.935 129.221 128.041 128.258 127.967C127.641 127.92 127.407 127.773 127.019 127.315L127.08 126.587C127.565 126.104 127.83 126.173 128.495 126.091C129.367 126.046 130.304 125.944 131.174 126.004C131.846 126.05 132.131 126.142 132.546 126.664C132.521 126.823 132.498 127.042 132.422 127.184C132.13 127.735 131.778 127.747 131.229 127.898Z" fill="black"/>
<path d="M137.579 140.037C137.192 140.153 136.709 140.344 136.309 140.368C135.782 140.399 135.369 140.237 135.037 139.813C133.967 138.446 134.514 133.807 134.48 132.071C134.962 132.1 135.35 132.172 135.811 132.314C137.073 133.974 135.608 136.318 136.355 138.173C136.515 138.571 136.896 138.584 137.268 138.732C137.678 139.265 137.601 139.354 137.579 140.037Z" fill="black"/>
<path d="M143.539 136.066C142.902 136.151 142.269 135.878 141.894 135.354C141.519 134.832 141.462 134.144 141.747 133.567C142.032 132.99 142.612 132.617 143.255 132.596C144.181 132.568 144.968 133.271 145.045 134.196C145.121 135.121 144.459 135.943 143.539 136.066Z" fill="black"/>
<path d="M332.789 133.962C331.944 134.097 331.031 134.296 330.177 134.315C329.569 134.328 329.035 134.184 328.57 133.782L328.73 133.392C329.691 132.846 330.581 132.706 331.651 132.52C333.055 132.421 334.714 132.132 335.899 133.072L335.77 133.44C334.774 133.884 333.858 133.902 332.789 133.962Z" fill="black"/>
<path d="M345.219 133.562C344.373 133.697 343.46 133.896 342.606 133.915C341.999 133.929 341.465 133.785 341 133.383L341.16 132.993C342.12 132.446 343.011 132.306 344.081 132.12C345.485 132.021 347.143 131.732 348.329 132.672L348.2 133.041C347.203 133.484 346.288 133.503 345.219 133.562Z" fill="black"/>
<path d="M127.008 136.235C126.396 136.391 125.749 136.205 125.313 135.749C124.876 135.294 124.719 134.638 124.9 134.034C125.082 133.429 125.574 132.97 126.189 132.83C127.123 132.618 128.054 133.197 128.278 134.129C128.502 135.06 127.936 135.999 127.008 136.235Z" fill="black"/>
<path d="M423.051 176.368C425.465 174.717 427.81 172.95 430.2 171.261L430.366 171.118C432.004 169.718 435.135 168.09 436.044 166.175L435.928 165.791C434.117 165.533 425.173 172.858 423.073 174.23C423.208 170.504 424.681 158.954 423.522 156.177L423.145 155.959C422.738 156.213 422.627 156.268 422.49 156.761C421.864 159.023 422.002 164.362 421.864 166.897C421.448 175.266 420.941 183.631 420.342 191.988C418.107 190.114 415.827 188.286 413.616 186.384C412.598 185.509 411.609 184.428 410.5 183.689C409.921 183.304 409.272 183.108 408.591 183.017L408.344 183.346C409.841 186.169 417.497 191.766 420.176 193.906C419.78 201.043 419.12 208.156 418.57 215.282C411.911 214.593 405.495 209.311 401.403 204.321C395.503 197.126 393.232 187.616 394.206 178.43C395.427 166.916 404.283 151.408 413.425 144.124C416.424 141.734 419.678 140.699 423.516 141.139C429.602 141.836 435.393 146.341 439.06 151.043C442.846 155.898 447.796 166.873 447.056 173.067C444.178 174.087 441.521 175.637 438.681 176.757C434.844 178.517 431.019 180.257 427.115 181.863C426.004 182.32 424.172 183.02 423.699 184.167C423.822 184.212 423.939 184.279 424.067 184.301C426.834 184.76 444.055 176.229 447.36 174.406C448.543 178.597 447.87 184.061 447.213 188.3C446.998 189.686 446.403 191.675 446.623 193.044C445.818 193.922 445.332 194.428 445.372 195.678C445.378 195.841 445.389 196.004 445.397 196.167L445.163 196.569C443.961 198.658 442.968 200.788 441.622 202.814C438.218 207.937 432.619 212.949 426.594 214.609C424.83 215.095 422.491 215.642 420.697 215.153C420.395 214.794 420.342 214.616 420.298 214.151L421.652 196.108C427.517 195.041 433.038 193.277 438.683 191.406C440.486 190.808 442.544 190.319 444.252 189.505C444.697 189.293 444.695 189.329 444.869 188.84L444.57 188.233C444.004 188.055 443.543 188.131 442.978 188.27C440.731 188.821 438.526 189.829 436.3 190.508C431.501 191.946 426.672 193.283 421.817 194.518C422.081 188.461 422.894 182.433 423.051 176.368Z" fill="#A1DAC1"/>
<path d="M338.12 146.537C337.242 146.437 336.407 146.372 335.74 145.778C335.683 145.024 335.824 144.845 336.149 144.184C337.161 144.299 337.825 144.378 338.518 145.18C338.533 145.835 338.444 145.956 338.12 146.537Z" fill="black"/>
<path d="M140.205 151.655C139.266 152.524 138.212 153.182 137.004 153.609C135.261 154.226 133.464 154.089 131.819 153.253C129.641 152.146 128.054 149.789 127.378 147.485C127.083 146.482 126.976 145.762 127.508 144.837L128.691 144.592C131.823 144.47 141.227 144.071 143.767 144.615C143.993 145.125 144.026 144.997 143.868 145.6C142.08 146.781 141.685 149.679 140.205 151.655ZM129 146.236C129.601 148.418 130.289 150.404 132.363 151.626C133.619 152.367 135.034 152.468 136.413 152.023C137.356 151.719 138.19 151.141 138.889 150.444C139.707 149.362 140.575 148.228 140.742 146.844L140.554 146.462C137.624 145.613 132.184 146.125 129 146.236Z" fill="black"/>
<path d="M138.889 150.444C138.19 151.14 137.357 151.718 136.413 152.023C135.035 152.468 133.62 152.366 132.364 151.626C130.289 150.403 129.602 148.418 129 146.236C132.185 146.125 137.624 145.613 140.555 146.462L140.743 146.843C140.575 148.228 139.708 149.362 138.889 150.444Z" fill="#FEFEFE"/>
<path d="M116.247 170.729L116.157 150.646C117.285 151.438 118.124 152.882 119.134 153.857C123.742 158.304 130.51 160.346 136.777 160.355C136.839 162.766 136.401 170.308 137.288 172.057L138.109 171.834C138.669 171.266 138.586 170.664 138.69 169.886C139.423 169.561 140.612 170.038 141.409 170.212C140.295 174.174 139.516 178.263 138.618 182.281C138.201 184.14 137.738 185.989 137.231 187.825C134.359 185.347 131.265 183.074 128.3 180.704C124.232 177.44 120.214 174.115 116.247 170.729Z" fill="#FEFEFE"/>
<path d="M344.8 157.17C343.9 157.727 343.015 158.231 341.984 158.503C340.596 158.861 339.123 158.642 337.9 157.894C336.533 157.068 335.354 155.607 334.987 154.034C334.822 153.322 334.893 152.85 335.265 152.234L336.368 152.059C340.334 151.943 344.407 151.754 348.36 152.087C347.46 154.163 346.48 155.665 344.8 157.17ZM336.6 153.649C336.805 154.795 337.06 155.618 338.02 156.345C338.903 157.014 340.009 157.149 341.078 156.967C342.253 156.767 343.304 156.212 344.257 155.517L345.936 153.629C342.83 153.618 339.704 153.54 336.6 153.649Z" fill="black"/>
<path d="M344.257 155.517C343.305 156.213 342.253 156.767 341.079 156.967C340.01 157.149 338.903 157.015 338.02 156.345C337.06 155.618 336.805 154.795 336.601 153.649C339.704 153.54 342.83 153.619 345.936 153.629L344.257 155.517Z" fill="#FEFEFE"/>
<path d="M330.18 161.048C332.784 162.992 335.147 164.347 338.32 165.105C338.317 168.406 338.29 171.706 338.242 175.006C335.298 175.572 332.854 176.208 330.159 177.505C329.874 172.072 330.046 166.489 330.18 161.048Z" fill="#008D51"/>
<path d="M90.002 284.488L90.0779 216.404L90.1028 198.437C90.0913 194.56 89.8328 190.481 90.3479 186.636C90.8168 183.136 91.9306 180.109 94.1263 177.323C97.492 173.055 102.362 170.946 107.65 170.296C109.436 170.142 111.179 170.192 112.969 170.267C117.532 173.947 122.071 177.659 126.584 181.402C130.347 184.523 134.113 187.85 138.217 190.518C139.277 187.826 139.798 184.808 140.444 181.985C141.289 178.223 142.18 174.471 143.117 170.731C146.969 172.101 150.506 173.746 153.455 176.64C155.88 179.02 157.547 181.834 158.597 185.055C160.929 192.207 162.034 202.95 163.365 210.61C165.314 221.241 167.09 231.903 168.691 242.592C169.78 249.51 171.164 256.464 171.23 263.486C171.282 268.888 171.024 273.278 167.044 277.292C165.541 278.807 163.655 280.071 161.517 280.44C157.81 281.08 150.979 280.557 146.942 280.553L113.153 280.57L113.126 252.548L113.088 215.362C113.08 209.551 113.343 203.644 113.109 197.848C113.086 197.272 113.039 196.766 112.733 196.264C112.526 195.923 112.561 196.031 112.117 195.941C111.662 196.453 111.502 196.771 111.444 197.467C111.259 199.674 111.456 202.045 111.463 204.266L111.493 219.435L111.509 260C111.507 268.111 111.711 276.3 111.301 284.398L90.002 284.488Z" fill="#FEFEFE"/>
<path d="M438.68 176.757C441.52 175.637 444.177 174.087 447.055 173.067C447.149 173.515 447.235 173.965 447.359 174.406C444.054 176.229 426.833 184.76 424.066 184.301C423.938 184.279 423.821 184.212 423.698 184.167C424.171 183.02 426.003 182.32 427.113 181.863C431.018 180.257 434.843 178.517 438.68 176.757Z" fill="black"/>
<path d="M337.103 190.194C336.059 188.888 334.868 187.401 334.896 185.646C334.942 182.934 338.459 180.467 340.288 178.787C340.567 178.938 340.785 179.123 340.997 179.366C342.118 180.648 344.393 184.01 344.183 185.68C343.977 187.309 341.367 189.164 340.225 190.223C339.681 202.936 338.926 215.638 337.962 228.326C337.454 236.021 337.294 243.956 336.249 251.595C334.005 254.264 331.451 256.671 328.976 259.125L327.552 257.019C326.048 254.766 324.621 252.463 323.272 250.114C325.401 240.012 328.058 229.955 330.368 219.885C332.635 209.994 334.571 200.026 337.103 190.194Z" fill="black"/>
<path d="M447.65 201.489L447.932 201.679C449.796 200.584 451.496 199.311 453.413 198.274C457.374 196.13 471.051 189.712 475.137 190.615C475.622 190.722 475.995 190.96 476.246 191.383C478.068 194.456 474.646 214.877 473.435 218.757C471.263 225.713 467.313 231.661 460.733 235.015C454.402 238.242 446.359 239.53 439.532 237.229L439.201 237.115C445.021 226.764 452.352 216.571 461.194 208.582C463.746 209.155 470.132 210.972 472.419 210.248L472.62 209.846C472.485 209.596 472.388 209.391 472.201 209.167C471.1 207.857 464.334 207.497 462.492 207.284C463.984 205.839 465.853 204.837 467.285 203.319C467.831 202.74 468.138 202.358 468.118 201.552L467.56 201.279C463.698 202.139 448.837 219.36 446.051 223.116C444.79 219.478 443.494 207.267 442.633 205.845C442.678 205.778 442.718 205.707 442.769 205.644C443.503 204.754 444.77 203.626 445.97 203.593C445.995 203.61 446.017 203.635 446.046 203.643C446.592 203.787 446.67 203.678 447.121 203.389C447.56 202.67 447.63 202.331 447.65 201.489Z" fill="white"/>
<path d="M445.397 196.166C445.389 196.003 445.378 195.84 445.372 195.677C445.333 194.428 445.818 193.922 446.623 193.044C447.469 195.61 447.313 198.788 447.65 201.489C447.629 202.331 447.559 202.67 447.12 203.389C446.67 203.677 446.592 203.787 446.046 203.643C446.016 203.635 445.995 203.609 445.969 203.593C446.117 201.227 445.647 198.531 445.397 196.166Z" fill="black"/>
<path d="M420.298 214.15C420.342 214.616 420.395 214.793 420.697 215.153C422.491 215.642 424.83 215.094 426.594 214.608C432.619 212.949 438.218 207.937 441.622 202.813C442.968 200.788 443.961 198.658 445.163 196.568L445.397 196.166C445.647 198.531 446.117 201.226 445.969 203.593C444.77 203.625 443.503 204.753 442.769 205.643C442.717 205.706 442.677 205.778 442.632 205.844L441.956 206.249C438.418 207.628 435.819 211.745 434.361 215.07C432.224 219.943 431.53 225.948 433.539 230.983C434.427 233.206 435.739 234.927 437.66 236.352C427.536 256.374 423.512 279.227 423.035 301.506C421.684 301.973 420.76 303.162 419.841 304.207C418.549 292.096 418.288 279.637 418.18 267.461C418.097 258.205 418.026 248.953 418.468 239.703C418.876 231.171 419.686 222.668 420.298 214.15Z" fill="#008D51"/>
<path d="M437.659 236.352C435.738 234.926 434.426 233.206 433.538 230.983C431.528 225.948 432.223 219.943 434.36 215.07C435.817 211.745 438.416 207.628 441.954 206.249C441.457 212.334 442.9 218.904 444.901 224.62C443.311 226.923 441.781 229.242 440.364 231.656C439.468 233.182 438.669 234.911 437.659 236.352Z" fill="white"/>
<path d="M170.941 246.168C169.452 236.086 167.983 225.942 166.114 215.926C173.102 218.636 180.35 220.795 187.496 223.055L220.958 233.516C218.066 238.565 214.098 243.311 210.639 248.013C208.11 251.457 205.302 254.736 202.646 258.087C196.724 255.594 190.611 253.421 184.607 251.131C180.126 249.423 175.573 247.41 170.941 246.168Z" fill="#FEFEFE"/>
<path d="M392.832 224.1C395.748 222.789 398.91 221.523 402.092 222.777C404.475 223.716 405.963 225.897 406.877 228.199C407.856 230.668 409.076 236.883 408.158 239.271C407.309 238.978 406.635 238.664 405.736 238.877C405.253 239.245 405.235 239.193 405.154 239.788C405.474 240.356 405.725 240.652 406.366 240.867C406.754 240.997 407.241 241.021 407.649 241.067C408.618 243.499 403.369 255.185 402.053 258.274C401.799 258.869 401.319 260.302 400.724 260.554C400.625 260.596 400.518 260.616 400.414 260.646C400.701 257.182 399.483 253.385 398.79 249.983C400.045 249.865 401.439 249.81 402.654 249.492C403.264 249.332 404.034 249.1 404.386 248.544L404.099 248.217C402.144 247.733 400.436 248.095 398.484 248.411C396.653 240.295 394.769 232.191 392.832 224.1Z" fill="#A1DAC1"/>
<path d="M41.0703 222.982C47.4137 222.352 54.2429 222.848 60.6365 222.882C69.8894 222.931 79.2172 222.703 88.461 223.003L88.4206 265.053L88.4014 277.796C88.3975 280.03 88.2337 282.384 88.4408 284.602C88.5129 285.375 88.4864 285.451 89.0241 286.017C89.7169 286.195 90.3463 286.291 91.0589 286.356L91.0541 294.096C88.4787 294.645 86.9537 295.657 85.0636 297.459C78.8804 296.82 73.1537 296.017 68.0492 300.356C67.9353 300.453 67.8277 300.556 67.7167 300.657C66.8149 300.41 65.89 300.221 64.9795 300.007C62.9351 298.804 60.7514 297.343 59.5838 295.216C56.8235 290.188 56.1197 282.348 54.9396 276.671L47.8036 240.666C46.9916 236.598 46.6205 231.772 44.985 227.982C44.1358 226.003 42.7866 224.281 41.0703 222.982Z" fill="#FEFEFE"/>
<path d="M23.5458 364.996C23.374 355.841 23.518 346.654 23.5187 337.495L23.5594 283.223L23.5593 249.83C23.5573 244.264 23.2943 238.554 23.6036 233C23.6916 231.421 23.907 229.541 24.7173 228.17C26.118 225.799 28.8667 224.235 31.4829 223.597C34.2866 222.914 36.8832 223.55 39.2746 225.122C40.8568 226.161 41.8651 227.353 42.5183 229.129C43.4794 231.744 43.7404 234.68 44.224 237.414C44.6801 239.994 45.2343 242.562 45.7483 245.131C47.6932 254.984 49.6922 264.825 51.7462 274.656C52.7485 279.651 53.5494 284.731 54.7002 289.689C55.9282 294.978 58.3037 298.806 62.9609 301.681C61.8851 306.429 52.5976 344.638 53.0445 346.371C53.4216 346.795 53.7325 347.01 54.2682 347.211C59.0936 349.027 64.6728 349.793 69.7062 350.991L102.053 358.652C107.558 359.944 113.403 360.937 118.768 362.662L118.179 365.222C109.622 365.333 101.042 364.94 92.478 364.94L23.5458 364.996Z" fill="#FEFEFE"/>
<path d="M227.398 234.959C229.973 232.842 231.934 231.559 235.237 230.836C238.527 230.359 242.795 232.189 246.019 232.937C248.014 233.402 250.031 233.769 252.062 234.038C252.07 237.854 252.619 254.416 251.93 256.609C245.992 258.88 241.337 263.594 235.568 266.102C234.554 266.542 233.008 266.687 231.994 266.171C231.482 265.91 231.103 265.531 230.983 264.95C230.539 262.814 235.888 259.705 237.144 258.075C237.148 257.439 237.102 257.349 236.775 256.799C236.507 256.687 236.318 256.518 236.027 256.632C235.431 256.865 234.951 257.597 234.501 258.039C232.604 259.898 228.434 264.842 225.731 264.885C224.791 264.9 224.236 264.47 223.615 263.842C222.542 260.554 231.292 256.812 232.757 253.757C232.71 253.139 232.743 253.146 232.299 252.722C229.634 253.506 224.784 258.627 222.616 260.605C222.015 261.168 221.377 261.776 220.541 261.951C219.774 262.113 219.079 261.989 218.435 261.547C217.85 261.147 217.32 260.546 217.248 259.817C217.092 258.225 224.825 253.276 226.194 251.559C226.711 250.909 226.994 250.362 226.888 249.53L226.396 249.434C223.77 250.561 216.38 257.493 214.279 259.867C212.984 259.666 211.79 259.558 210.863 258.546C210.124 255.518 218.372 251.375 219.883 248.565C219.828 247.958 219.841 247.92 219.438 247.469C217.116 247.42 212.077 254.552 208.961 255.458C208.345 255.307 208.217 255.358 207.846 254.857C207.969 253.84 211.058 250.36 211.81 249.382C215.658 244.381 219.341 239.255 222.852 234.011C224.396 234.262 225.89 234.542 227.398 234.959ZM233.221 236.349C231.556 236.825 227.121 238.679 226.175 240.116C225.811 240.668 225.797 240.81 225.944 241.4C227.096 241.684 228.069 240.974 229.034 240.388C231.054 239.162 232.524 238.206 234.901 237.753C236.456 238.813 237.831 240.183 239.421 241.154C240.944 241.985 245.255 244.716 246.928 244.309C247.12 243.821 247.122 243.823 246.964 243.324C245.107 241.807 242.659 240.941 240.579 239.746C238.912 238.788 237.624 237.577 236.18 236.333C235.198 236.332 234.202 236.296 233.221 236.349Z" fill="#FEFEFE"/>
<path d="M253.905 257.469C253.717 252.8 253.78 248.092 253.783 243.419C253.785 239.806 253.659 236.108 253.965 232.508C255.401 232.43 256.837 232.468 258.275 232.488C258.084 240.814 258.364 249.152 258.14 257.474C256.728 257.575 255.319 257.512 253.905 257.469Z" fill="#FEFEFE"/>
<path d="M234.901 237.753C232.524 238.206 231.054 239.162 229.034 240.388C228.069 240.974 227.096 241.684 225.944 241.4C225.797 240.81 225.811 240.668 226.174 240.116C227.121 238.679 231.556 236.825 233.221 236.349C234.202 236.296 235.198 236.332 236.18 236.333C237.624 237.577 238.912 238.788 240.579 239.746C242.658 240.941 245.107 241.807 246.963 243.324C247.122 243.823 247.12 243.821 246.928 244.309C245.254 244.716 240.944 241.985 239.421 241.154C237.831 240.183 236.456 238.813 234.901 237.753Z" fill="black"/>
<path d="M407.648 241.067C407.241 241.021 406.754 240.997 406.366 240.867C405.725 240.652 405.474 240.356 405.153 239.788C405.235 239.193 405.252 239.245 405.736 238.878C406.635 238.665 407.308 238.978 408.158 239.271C407.987 239.86 407.769 240.466 407.648 241.067Z" fill="black"/>
<path d="M171.204 247.88C172.81 248.361 174.349 248.887 175.892 249.543C178.252 261.054 181.251 272.426 184.057 283.834C185.166 288.343 186.583 292.936 187.404 297.494C183.431 297.668 180.094 297.724 176.993 294.796C173.359 291.364 172.486 286.779 172.448 281.992L172.438 272.104C173.136 263.886 172.712 255.984 171.204 247.88Z" fill="#FEFEFE"/>
<path d="M429.612 294.6C428.573 292.59 427.526 290.444 427.395 288.148C427.203 284.765 428.707 281.763 430.944 279.332C434.91 275.022 454.606 262.056 459.901 259.971C460.855 259.595 461.8 259.539 462.812 259.492C463.501 260.136 464.364 260.74 464.363 261.765C464.359 265.655 457.669 286.394 455.791 290.322C454.551 292.914 453.046 295.377 450.916 297.336C448.261 299.779 444.724 301.683 441.034 301.535C438.498 301.433 436.489 300.286 434.466 298.882C437.857 293.692 441.401 288.699 445.49 284.034C446.535 282.842 449.987 279.752 450.332 278.541C450.44 278.164 450.25 278.001 450.086 277.678L449.521 277.601C445.718 279.279 435.099 294.127 432.799 298.001C431.55 297.014 430.506 295.918 429.612 294.6Z" fill="#A1DAC1"/>
<path d="M414.747 309.457L414.461 309.623C409.282 312.66 404.5 316.549 399.479 319.862C391.38 325.205 376.289 333.173 366.536 334.431L366.365 334.366L366.034 323.821C366.107 323.838 366.179 323.857 366.252 323.871C366.374 323.894 366.496 323.911 366.618 323.932C368.774 324.297 372.413 323.268 374.992 323.35C382.432 318.547 379.785 310.215 382.619 306.71C383.105 306.11 383.535 305.51 383.845 304.797C385.474 301.052 386.729 297.028 388.201 293.202L398.597 266.475C400.449 270.007 402.39 273.483 404.041 277.116C408.712 287.395 412.114 298.494 414.747 309.457Z" fill="#008D51"/>
<path d="M309.758 272.557C310.287 272.782 310.819 272.965 311.393 273.03C315.906 273.539 321.176 273.105 325.776 273.111C338.3 273.128 350.971 272.776 363.48 273.291C362.678 275.916 361.977 278.649 361.023 281.218C358.78 280.355 316.539 280.812 310.903 280.821C310.612 278.053 310.092 275.319 309.758 272.557Z" fill="white"/>
<path d="M162.149 282.234C166.077 280.953 168.042 279.01 170.693 275.954L170.715 276.245C171.235 283.77 169.588 290.636 175.931 296.313C177.417 297.643 179.244 298.659 181.197 299.096C184.283 299.786 187.953 299.405 191.132 299.388L207.321 299.262C210.088 299.233 213.127 298.954 215.825 299.626C220.458 300.78 224.241 304.993 224.596 309.803C225.058 316.072 224.612 322.592 224.597 328.891L224.626 365.194L178.131 365.195L165.441 365.186C163.432 365.185 161.142 365.398 159.167 365.069C158.972 364.302 158.983 363.62 159.002 362.833C159.056 356.654 159.399 350.439 159.583 344.259C160.839 343.552 187.328 343.998 191.066 343.998C196.52 343.999 201.54 343.309 205.539 339.233C208.633 336.033 210.34 331.74 210.288 327.288C210.247 322.827 208.501 318.061 205.282 314.919C203.055 312.746 200.073 311.359 197.04 310.744C192.64 309.851 187.538 310.369 183.055 310.413L160.862 310.596C161.327 301.154 161.41 291.656 162.149 282.234Z" fill="#FEFEFE"/>
<path d="M107.636 304.699C106.373 305.631 105.252 306.353 103.649 306.459C101.978 306.569 91.5608 304.762 90.4518 303.78C89.9209 301.835 92.0412 300.697 92.5352 298.754C93.3193 295.67 92.7552 289.568 92.7672 286.151C98.8817 285.996 105.096 285.929 111.206 286.185C111.252 289.584 112.033 298.793 110.282 301.262L109.689 300.697L109.211 300.79C108.369 301.728 108.064 303.486 107.636 304.699Z" fill="#FEFEFE"/>
<path d="M146.667 364.748C147.334 346.592 147.87 328.431 148.274 310.267C148.479 303.426 148.359 296.42 148.882 289.608C148.963 288.563 148.992 286.836 149.629 286.002C150.225 287.3 150.251 288.963 150.27 290.379C150.325 294.52 150.012 298.733 149.882 302.875L149.164 327.726L148.522 353.516C148.408 357.253 148.441 361.071 148.131 364.794L147.748 365.156C147.123 365.158 147.142 365.156 146.667 364.748Z" fill="#FEFEFE"/>
<path d="M424.887 299.42C426.745 298.224 428.243 296.308 429.614 294.6C430.507 295.918 431.551 297.015 432.801 298.001C431.513 301.07 430.017 304.071 428.805 307.165C426.94 311.926 425.461 317.062 424.264 322.027C424.42 317.691 424.505 313.353 424.519 309.014C424.548 305.922 424.349 302.439 424.887 299.42Z" fill="#FEFEFE"/>
<path d="M84.6318 303.975C84.9571 302.601 85.3026 301.211 85.9056 299.928C86.9093 297.79 88.1993 296.659 90.3989 295.872C90.6271 295.935 90.8332 296.062 91.0437 296.169C91.1787 297.083 91.3262 298.186 90.8208 299.011C90.4407 299.632 89.6844 299.73 89.032 299.898L88.7149 299.977C87.7414 301.538 89.2746 303.261 88.6106 304.685L87.3157 304.529L84.6318 303.975Z" fill="#FEFEFE"/>
<path d="M67.7158 300.656C67.8268 300.556 67.9344 300.453 68.0483 300.356C73.1528 296.017 78.8795 296.82 85.0627 297.459L83.9062 299.517C79.8313 299.325 75.0656 298.941 71.5788 301.455C70.282 301.284 68.9924 300.941 67.7158 300.656Z" fill="#008D51"/>
<path d="M331.419 365.26L325.268 321.062L323.228 306.599C322.868 304.087 322.159 301.305 322.257 298.775L322.604 298.457C323.242 298.432 323.334 298.377 323.852 298.731C325.653 310.668 327.13 322.67 328.817 334.626C330.229 344.637 331.926 354.682 332.858 364.748L332.759 365.407C332.293 365.742 332.316 365.754 331.749 365.695L331.419 365.26Z" fill="black"/>
<path d="M71.5801 301.455C75.0668 298.942 79.8326 299.325 83.9075 299.518C83.4212 300.974 83.1709 302.307 82.9946 303.828C79.2056 302.962 75.4003 302.171 71.5801 301.455Z" fill="#FEFEFE"/>
<path d="M419.842 304.207C420.76 303.163 421.684 301.974 423.036 301.506C422.883 309.758 422.627 317.973 422.946 326.226L422.726 326.378C421.436 318.987 420.463 311.682 419.842 304.207Z" fill="#FEFEFE"/>
<path d="M354.982 308.825C355.683 306.375 356.624 303.997 357.515 301.61C365.674 304.834 370.428 306.721 379.257 307.737C379.435 307.918 379.475 307.932 379.594 308.2C380.226 309.633 379.494 312.681 379.084 314.181C378.35 316.873 377.11 320.022 374.524 321.405C373.197 322.115 372.183 321.802 370.824 321.346C369.966 321.839 369.077 322.247 368.182 322.665C366.946 322.56 366.113 322.182 365.022 321.595L365.112 321.09L364.691 321.347C363.413 321.442 361.723 321.754 360.516 321.245C359.393 320.771 359.036 319.744 358.563 318.708C357.989 318.856 357.412 318.99 356.833 319.11C355.456 319.387 353.939 319.096 352.837 318.174C349.304 315.218 359.23 309.014 359.129 306.129C357.32 306.271 356.236 307.655 354.982 308.825Z" fill="#FEFEFE"/>
<path d="M59.1318 324.954C60.5228 317.253 62.8401 309.519 64.7759 301.937C67.542 302.308 70.285 302.957 73.0289 303.47C80.185 304.771 87.3128 306.224 94.4069 307.83C98.2977 308.69 128.91 316.019 129.967 317.388C130.07 319.883 125.993 337.662 124.86 340.325C118.163 339.434 111.384 337.104 104.809 335.554C89.6229 331.853 74.3958 328.319 59.1318 324.954Z" fill="#FEFEFE"/>
<path d="M109.472 309.916C109.455 307.713 109.3 305.587 110.195 303.522C111.241 304.735 112.121 306.16 112.649 307.675C112.953 308.545 113.274 309.653 112.857 310.494L109.472 309.916Z" fill="#FEFEFE"/>
<path d="M416.141 307.936C416.777 307.411 417.572 306.985 418.268 306.534C419.016 313.389 420.006 320.198 420.508 327.074C419.839 325.678 419.785 323.552 419.429 321.989C418.361 317.303 417.11 312.642 416.141 307.936Z" fill="#FEFEFE"/>
<path d="M104.06 308.508C103.803 308.441 103.576 308.312 103.337 308.197C104.834 307.988 106.028 307.759 107.39 307.083L107.536 307.28C107.587 307.938 107.689 308.47 107.335 309.064C106.305 309.311 105.09 308.772 104.06 308.508Z" fill="#FEFEFE"/>
<path d="M160.862 310.596L183.055 310.413C187.538 310.369 192.64 309.851 197.04 310.744C200.073 311.359 203.055 312.746 205.282 314.92C208.501 318.061 210.247 322.827 210.288 327.288C210.34 331.74 208.633 336.033 205.539 339.233C201.54 343.309 196.52 343.999 191.066 343.998C187.328 343.998 160.839 343.552 159.583 344.259C159.688 343.363 159.681 342.428 159.724 341.525L183.43 341.454C187.578 341.443 193.304 341.992 197.266 340.991C199.546 340.414 201.724 339.087 203.416 337.466C206.141 334.853 207.837 331.237 207.86 327.438C207.882 323.544 206.066 319.737 203.326 317.01C201.638 315.33 199.561 314.068 197.234 313.511C192.783 312.444 187.526 313.001 182.945 312.998L160.761 312.962L160.862 310.596Z" fill="#008D51"/>
<path d="M160.76 312.962L182.945 312.998C187.525 313 192.782 312.444 197.234 313.51C199.56 314.067 201.637 315.33 203.325 317.01C206.066 319.737 207.881 323.544 207.859 327.437C207.837 331.237 206.141 334.853 203.415 337.466C201.724 339.087 199.545 340.414 197.265 340.99C193.304 341.991 187.578 341.442 183.429 341.454L159.724 341.525C159.801 331.996 160.666 322.49 160.76 312.962Z" fill="#FEFEFE"/>
<path d="M54.4111 345.708C55.7973 339.323 57.5414 333.052 58.7551 326.623C60.0855 326.758 61.4173 327.03 62.7372 327.248C62.2533 329.74 61.7287 332.229 61.4245 334.751C65.0035 336.147 113.131 347.887 114.034 347.709C115.433 345.829 115.836 342.374 116.379 340.092C118.994 340.639 121.578 341.316 124.167 341.975C123.344 345.728 122.487 349.473 121.598 353.211L119.636 360.971C108.258 358.58 96.9682 355.782 85.6426 353.152C75.2322 350.734 64.7258 348.495 54.4111 345.708Z" fill="#FEFEFE"/>
<path d="M63.0537 333.697C63.5563 331.734 63.9387 329.739 64.3481 327.755C71.2741 329.102 78.2005 331.01 85.0784 332.624C94.9592 334.943 104.983 337.105 114.747 339.868C114.288 341.895 113.752 343.904 113.141 345.891C111.311 346.005 103.001 343.467 100.508 342.859C88.0184 339.81 75.5094 336.892 63.0537 333.697Z" fill="#FEFEFE"/>
<path d="M451.115 336.057L450.724 336.072C440.966 336.349 431.131 336.135 421.367 336.12C416.165 336.111 409.522 336.536 404.461 335.935C403.85 335.863 403.217 335.697 402.811 335.192C402.462 334.757 402.409 334.366 402.453 333.831C402.527 332.924 403.053 332.382 403.697 331.802C410.967 331.365 418.433 331.738 425.728 331.733C433.49 331.727 441.449 331.348 449.191 331.799C449.973 331.845 450.977 331.84 451.622 332.346C452.067 332.696 452.289 333.227 452.278 333.793C452.257 334.809 451.828 335.391 451.115 336.057Z" fill="#FEFEFE"/>
<path d="M409.266 365.702C406.681 357.186 405.328 348.118 403.254 339.445L434.276 339.535C439.468 339.551 444.776 339.318 449.955 339.626C447.966 348.294 445.89 357.08 443.546 365.66L443.434 365.67C443.085 365.908 442.848 365.998 442.424 366.032C436.595 366.494 430.449 366.164 424.582 366.172C419.881 366.179 414.836 366.546 410.169 366.093C409.776 366.055 409.567 365.95 409.266 365.702Z" fill="white"/>
</g>
<defs>
<clipPath id="clip0_17_730">
<rect width="492" height="401" fill="white"/>
</clipPath>
</defs>
</svg>
