<svg width="32" height="32" viewBox="0 0 32 32" fill="none" xmlns="http://www.w3.org/2000/svg">
<rect width="32" height="32" rx="12" fill="#009A58" fill-opacity="0.32"/>
<path d="M23.4899 15.6653C23.5395 15.709 23.5788 15.7609 23.6056 15.818C23.6325 15.8751 23.6463 15.9363 23.6463 15.9982C23.6463 16.06 23.6325 16.1212 23.6056 16.1783C23.5788 16.2354 23.5395 16.2873 23.4899 16.331L16.195 22.7604C15.2945 23.5543 14.0732 24.0002 12.8 24C11.5267 23.9998 10.3057 23.5534 9.40549 22.7592C8.50532 21.9649 7.99975 20.8878 8 19.7648C8.00025 18.6418 8.5063 17.5648 9.40682 16.7709L18.2316 8.87372C18.5452 8.5969 18.9175 8.37726 19.3273 8.22735C19.7371 8.07744 20.1764 8.00018 20.62 8C21.0637 7.99982 21.503 8.07671 21.913 8.22629C22.323 8.37587 22.6955 8.5952 23.0094 8.87176C23.3232 9.14833 23.5723 9.47671 23.7422 9.83816C23.9122 10.1996 23.9998 10.587 24 10.9783C24.0002 11.3697 23.913 11.7572 23.7434 12.1187C23.5738 12.4803 23.3252 12.8089 23.0116 13.0857L14.1859 20.9797C14.0044 21.1401 13.7889 21.2674 13.5517 21.3543C13.3145 21.4412 13.0601 21.486 12.8032 21.4863C12.5463 21.4865 12.2919 21.4421 12.0545 21.3556C11.8171 21.2691 11.6013 21.1422 11.4194 20.9821C11.2376 20.822 11.0933 20.632 10.9948 20.4227C10.8962 20.2135 10.8454 19.9892 10.8452 19.7626C10.8449 19.536 10.8953 19.3116 10.9933 19.1022C11.0914 18.8928 11.2353 18.7024 11.4168 18.5421L18.8201 11.9034C18.8693 11.8593 18.9278 11.8242 18.9923 11.8001C19.0568 11.7759 19.1261 11.7633 19.1962 11.7628C19.2663 11.7622 19.3358 11.7739 19.4008 11.7971C19.4657 11.8203 19.5249 11.8545 19.5749 11.8979C19.6248 11.9412 19.6646 11.9928 19.692 12.0497C19.7193 12.1067 19.7337 12.1678 19.7343 12.2296C19.7348 12.2914 19.7216 12.3527 19.6953 12.41C19.669 12.4673 19.6302 12.5195 19.5811 12.5636L12.1777 19.2054C12.095 19.278 12.0292 19.3644 11.9843 19.4594C11.9393 19.5544 11.916 19.6564 11.9158 19.7594C11.9155 19.8623 11.9382 19.9644 11.9826 20.0596C12.027 20.1549 12.0923 20.2415 12.1746 20.3145C12.257 20.3875 12.3548 20.4454 12.4626 20.4851C12.5704 20.5247 12.6859 20.5453 12.8027 20.5455C12.9195 20.5458 13.0351 20.5258 13.1431 20.4866C13.2511 20.4474 13.3493 20.3898 13.4321 20.3172L22.2542 12.4224C22.688 12.0404 22.932 11.5221 22.9325 10.9814C22.933 10.4407 22.69 9.92202 22.2569 9.5394C21.8238 9.15677 21.2361 8.94157 20.6231 8.94113C20.01 8.94069 19.4219 9.15505 18.9881 9.53705L10.1624 17.4311C9.46174 18.0483 9.06776 18.8859 9.06717 19.7594C9.06659 20.6329 9.45945 21.4708 10.1593 22.0888C10.8592 22.7068 11.8088 23.0543 12.7991 23.0548C13.7895 23.0554 14.7395 22.7088 15.4403 22.0916L22.7351 15.6622C22.7849 15.6187 22.8439 15.5842 22.9088 15.5608C22.9737 15.5374 23.0431 15.5255 23.1132 15.5258C23.1833 15.5261 23.2527 15.5385 23.3173 15.5625C23.3819 15.5864 23.4406 15.6214 23.4899 15.6653Z" fill="white"/>
</svg>
